<?xml version="1.0" encoding="utf-8" standalone="no"?>
<!DOCTYPE svg PUBLIC "-//W3C//DTD SVG 1.1//EN"
  "http://www.w3.org/Graphics/SVG/1.1/DTD/svg11.dtd">
<!-- Created with matplotlib (https://matplotlib.org/) -->
<svg height="396pt" version="1.1" viewBox="0 0 576 396" width="576pt" xmlns="http://www.w3.org/2000/svg" xmlns:xlink="http://www.w3.org/1999/xlink">
 <defs>
  <style type="text/css">
*{stroke-linecap:butt;stroke-linejoin:round;}
  </style>
 </defs>
 <g id="figure_1">
  <g id="patch_1">
   <path d="M 0 396 
L 576 396 
L 576 0 
L 0 0 
z
" style="fill:#f0f0f0;"/>
  </g>
  <g id="axes_1">
   <g id="patch_2">
    <path d="M 56.546175 344.406625 
L 560.88 344.406625 
L 560.88 29.81625 
L 56.546175 29.81625 
z
" style="fill:#eaeaf2;"/>
   </g>
   <g id="matplotlib.axis_1">
    <g id="xtick_1">
     <g id="line2d_1">
      <path clip-path="url(#pb8026311db)" d="M 79.47044 344.406625 
L 79.47044 29.81625 
" style="fill:none;stroke:#ffffff;stroke-linecap:round;"/>
     </g>
     <g id="text_1">
      <!-- $\mathdefault{10^{-1}}$ -->
      <defs>
       <path d="M 37.25 0 
L 28.46875 0 
L 28.46875 56 
Q 25.296875 52.984375 20.140625 49.953125 
Q 14.984375 46.921875 10.890625 45.40625 
L 10.890625 53.90625 
Q 18.265625 57.375 23.78125 62.296875 
Q 29.296875 67.234375 31.59375 71.875 
L 37.25 71.875 
z
" id="ArialMT-49"/>
       <path d="M 4.15625 35.296875 
Q 4.15625 48 6.765625 55.734375 
Q 9.375 63.484375 14.515625 67.671875 
Q 19.671875 71.875 27.484375 71.875 
Q 33.25 71.875 37.59375 69.546875 
Q 41.9375 67.234375 44.765625 62.859375 
Q 47.609375 58.5 49.21875 52.21875 
Q 50.828125 45.953125 50.828125 35.296875 
Q 50.828125 22.703125 48.234375 14.96875 
Q 45.65625 7.234375 40.5 3 
Q 35.359375 -1.21875 27.484375 -1.21875 
Q 17.140625 -1.21875 11.234375 6.203125 
Q 4.15625 15.140625 4.15625 35.296875 
z
M 13.1875 35.296875 
Q 13.1875 17.671875 17.3125 11.828125 
Q 21.4375 6 27.484375 6 
Q 33.546875 6 37.671875 11.859375 
Q 41.796875 17.71875 41.796875 35.296875 
Q 41.796875 52.984375 37.671875 58.78125 
Q 33.546875 64.59375 27.390625 64.59375 
Q 21.34375 64.59375 17.71875 59.46875 
Q 13.1875 52.9375 13.1875 35.296875 
z
" id="ArialMT-48"/>
       <path d="M 52.828125 31.203125 
L 5.5625 31.203125 
L 5.5625 39.40625 
L 52.828125 39.40625 
z
" id="ArialMT-8722"/>
      </defs>
      <g style="fill:#262626;" transform="translate(69.57044 361.719125)scale(0.1 -0.1)">
       <use transform="translate(0 0.99375)" xlink:href="#ArialMT-49"/>
       <use transform="translate(55.615234 0.99375)" xlink:href="#ArialMT-48"/>
       <use transform="translate(112.972813 70.6875)scale(0.7)" xlink:href="#ArialMT-8722"/>
       <use transform="translate(153.851719 70.6875)scale(0.7)" xlink:href="#ArialMT-49"/>
      </g>
     </g>
    </g>
    <g id="xtick_2">
     <g id="line2d_2">
      <path clip-path="url(#pb8026311db)" d="M 537.955735 344.406625 
L 537.955735 29.81625 
" style="fill:none;stroke:#ffffff;stroke-linecap:round;"/>
     </g>
     <g id="text_2">
      <!-- $\mathdefault{10^{0}}$ -->
      <g style="fill:#262626;" transform="translate(530.105735 361.719125)scale(0.1 -0.1)">
       <use transform="translate(0 0.99375)" xlink:href="#ArialMT-49"/>
       <use transform="translate(55.615234 0.99375)" xlink:href="#ArialMT-48"/>
       <use transform="translate(112.972813 70.6875)scale(0.7)" xlink:href="#ArialMT-48"/>
      </g>
     </g>
    </g>
    <g id="xtick_3"/>
    <g id="xtick_4"/>
    <g id="xtick_5"/>
    <g id="xtick_6"/>
    <g id="xtick_7"/>
    <g id="xtick_8"/>
    <g id="xtick_9"/>
    <g id="xtick_10"/>
    <g id="xtick_11"/>
    <g id="text_3">
     <!-- SALES GROWTH -->
     <defs>
      <path d="M 4.5 23 
L 13.421875 23.78125 
Q 14.0625 18.40625 16.375 14.96875 
Q 18.703125 11.53125 23.578125 9.40625 
Q 28.46875 7.28125 34.578125 7.28125 
Q 39.984375 7.28125 44.140625 8.890625 
Q 48.296875 10.5 50.3125 13.296875 
Q 52.34375 16.109375 52.34375 19.4375 
Q 52.34375 22.796875 50.390625 25.3125 
Q 48.4375 27.828125 43.953125 29.546875 
Q 41.0625 30.671875 31.203125 33.03125 
Q 21.34375 35.40625 17.390625 37.5 
Q 12.25 40.1875 9.734375 44.15625 
Q 7.234375 48.140625 7.234375 53.078125 
Q 7.234375 58.5 10.296875 63.203125 
Q 13.375 67.921875 19.28125 70.359375 
Q 25.203125 72.796875 32.421875 72.796875 
Q 40.375 72.796875 46.453125 70.234375 
Q 52.546875 67.671875 55.8125 62.6875 
Q 59.078125 57.71875 59.328125 51.421875 
L 50.25 50.734375 
Q 49.515625 57.515625 45.28125 60.984375 
Q 41.0625 64.453125 32.8125 64.453125 
Q 24.21875 64.453125 20.28125 61.296875 
Q 16.359375 58.15625 16.359375 53.71875 
Q 16.359375 49.859375 19.140625 47.359375 
Q 21.875 44.875 33.421875 42.265625 
Q 44.96875 39.65625 49.265625 37.703125 
Q 55.515625 34.8125 58.484375 30.390625 
Q 61.46875 25.984375 61.46875 20.21875 
Q 61.46875 14.5 58.203125 9.4375 
Q 54.9375 4.390625 48.796875 1.578125 
Q 42.671875 -1.21875 35.015625 -1.21875 
Q 25.296875 -1.21875 18.71875 1.609375 
Q 12.15625 4.4375 8.421875 10.125 
Q 4.6875 15.828125 4.5 23 
z
" id="ArialMT-83"/>
      <path d="M -0.140625 0 
L 27.34375 71.578125 
L 37.546875 71.578125 
L 66.84375 0 
L 56.0625 0 
L 47.703125 21.6875 
L 17.78125 21.6875 
L 9.90625 0 
z
M 20.515625 29.390625 
L 44.78125 29.390625 
L 37.3125 49.21875 
Q 33.890625 58.25 32.234375 64.0625 
Q 30.859375 57.171875 28.375 50.390625 
z
" id="ArialMT-65"/>
      <path d="M 7.328125 0 
L 7.328125 71.578125 
L 16.796875 71.578125 
L 16.796875 8.453125 
L 52.046875 8.453125 
L 52.046875 0 
z
" id="ArialMT-76"/>
      <path d="M 7.90625 0 
L 7.90625 71.578125 
L 59.671875 71.578125 
L 59.671875 63.140625 
L 17.390625 63.140625 
L 17.390625 41.21875 
L 56.984375 41.21875 
L 56.984375 32.8125 
L 17.390625 32.8125 
L 17.390625 8.453125 
L 61.328125 8.453125 
L 61.328125 0 
z
" id="ArialMT-69"/>
      <path id="ArialMT-32"/>
      <path d="M 41.21875 28.078125 
L 41.21875 36.46875 
L 71.53125 36.53125 
L 71.53125 9.96875 
Q 64.546875 4.390625 57.125 1.578125 
Q 49.703125 -1.21875 41.890625 -1.21875 
Q 31.34375 -1.21875 22.71875 3.296875 
Q 14.109375 7.8125 9.71875 16.359375 
Q 5.328125 24.90625 5.328125 35.453125 
Q 5.328125 45.90625 9.6875 54.953125 
Q 14.0625 64.015625 22.265625 68.40625 
Q 30.46875 72.796875 41.15625 72.796875 
Q 48.921875 72.796875 55.1875 70.28125 
Q 61.46875 67.78125 65.03125 63.28125 
Q 68.609375 58.796875 70.453125 51.5625 
L 61.921875 49.21875 
Q 60.296875 54.6875 57.90625 57.8125 
Q 55.515625 60.9375 51.0625 62.8125 
Q 46.625 64.703125 41.21875 64.703125 
Q 34.71875 64.703125 29.984375 62.71875 
Q 25.25 60.75 22.34375 57.515625 
Q 19.4375 54.296875 17.828125 50.4375 
Q 15.09375 43.796875 15.09375 36.03125 
Q 15.09375 26.46875 18.390625 20.015625 
Q 21.6875 13.578125 27.984375 10.453125 
Q 34.28125 7.328125 41.359375 7.328125 
Q 47.515625 7.328125 53.375 9.6875 
Q 59.234375 12.0625 62.25 14.75 
L 62.25 28.078125 
z
" id="ArialMT-71"/>
      <path d="M 7.859375 0 
L 7.859375 71.578125 
L 39.59375 71.578125 
Q 49.171875 71.578125 54.140625 69.640625 
Q 59.125 67.71875 62.109375 62.828125 
Q 65.09375 57.953125 65.09375 52.046875 
Q 65.09375 44.4375 60.15625 39.203125 
Q 55.21875 33.984375 44.921875 32.5625 
Q 48.6875 30.765625 50.640625 29 
Q 54.78125 25.203125 58.5 19.484375 
L 70.953125 0 
L 59.03125 0 
L 49.5625 14.890625 
Q 45.40625 21.34375 42.71875 24.75 
Q 40.046875 28.171875 37.921875 29.53125 
Q 35.796875 30.90625 33.59375 31.453125 
Q 31.984375 31.78125 28.328125 31.78125 
L 17.328125 31.78125 
L 17.328125 0 
z
M 17.328125 39.984375 
L 37.703125 39.984375 
Q 44.1875 39.984375 47.84375 41.328125 
Q 51.515625 42.671875 53.421875 45.625 
Q 55.328125 48.578125 55.328125 52.046875 
Q 55.328125 57.125 51.640625 60.390625 
Q 47.953125 63.671875 39.984375 63.671875 
L 17.328125 63.671875 
z
" id="ArialMT-82"/>
      <path d="M 4.828125 34.859375 
Q 4.828125 52.6875 14.390625 62.765625 
Q 23.96875 72.859375 39.109375 72.859375 
Q 49.03125 72.859375 56.984375 68.109375 
Q 64.9375 63.375 69.109375 54.90625 
Q 73.296875 46.4375 73.296875 35.6875 
Q 73.296875 24.8125 68.890625 16.21875 
Q 64.5 7.625 56.4375 3.203125 
Q 48.390625 -1.21875 39.0625 -1.21875 
Q 28.953125 -1.21875 20.984375 3.65625 
Q 13.03125 8.546875 8.921875 16.984375 
Q 4.828125 25.4375 4.828125 34.859375 
z
M 14.59375 34.71875 
Q 14.59375 21.78125 21.546875 14.328125 
Q 28.515625 6.890625 39.015625 6.890625 
Q 49.703125 6.890625 56.609375 14.40625 
Q 63.53125 21.921875 63.53125 35.75 
Q 63.53125 44.484375 60.578125 51 
Q 57.625 57.515625 51.921875 61.109375 
Q 46.234375 64.703125 39.15625 64.703125 
Q 29.109375 64.703125 21.84375 57.78125 
Q 14.59375 50.875 14.59375 34.71875 
z
" id="ArialMT-79"/>
      <path d="M 20.21875 0 
L 1.21875 71.578125 
L 10.9375 71.578125 
L 21.828125 24.65625 
Q 23.578125 17.28125 24.859375 10.015625 
Q 27.59375 21.484375 28.078125 23.25 
L 41.703125 71.578125 
L 53.125 71.578125 
L 63.375 35.359375 
Q 67.234375 21.875 68.953125 10.015625 
Q 70.3125 16.796875 72.515625 25.59375 
L 83.734375 71.578125 
L 93.265625 71.578125 
L 73.640625 0 
L 64.5 0 
L 49.421875 54.546875 
Q 47.515625 61.375 47.171875 62.9375 
Q 46.046875 58.015625 45.0625 54.546875 
L 29.890625 0 
z
" id="ArialMT-87"/>
      <path d="M 25.921875 0 
L 25.921875 63.140625 
L 2.34375 63.140625 
L 2.34375 71.578125 
L 59.078125 71.578125 
L 59.078125 63.140625 
L 35.40625 63.140625 
L 35.40625 0 
z
" id="ArialMT-84"/>
      <path d="M 8.015625 0 
L 8.015625 71.578125 
L 17.484375 71.578125 
L 17.484375 42.1875 
L 54.6875 42.1875 
L 54.6875 71.578125 
L 64.15625 71.578125 
L 64.15625 0 
L 54.6875 0 
L 54.6875 33.734375 
L 17.484375 33.734375 
L 17.484375 0 
z
" id="ArialMT-72"/>
     </defs>
     <g style="fill:#262626;" transform="translate(264.401135 375.580219)scale(0.11 -0.11)">
      <use xlink:href="#ArialMT-83"/>
      <use x="66.699219" xlink:href="#ArialMT-65"/>
      <use x="133.398438" xlink:href="#ArialMT-76"/>
      <use x="189.013672" xlink:href="#ArialMT-69"/>
      <use x="255.712891" xlink:href="#ArialMT-83"/>
      <use x="322.412109" xlink:href="#ArialMT-32"/>
      <use x="350.195312" xlink:href="#ArialMT-71"/>
      <use x="427.978516" xlink:href="#ArialMT-82"/>
      <use x="500.195312" xlink:href="#ArialMT-79"/>
      <use x="577.978516" xlink:href="#ArialMT-87"/>
      <use x="672.363281" xlink:href="#ArialMT-84"/>
      <use x="733.447266" xlink:href="#ArialMT-72"/>
     </g>
    </g>
   </g>
   <g id="matplotlib.axis_2">
    <g id="ytick_1">
     <g id="line2d_3">
      <path clip-path="url(#pb8026311db)" d="M 56.546175 282.870681 
L 560.88 282.870681 
" style="fill:none;stroke:#ffffff;stroke-linecap:round;"/>
     </g>
     <g id="text_4">
      <!-- $\mathdefault{10^{-2}}$ -->
      <defs>
       <path d="M 50.34375 8.453125 
L 50.34375 0 
L 3.03125 0 
Q 2.9375 3.171875 4.046875 6.109375 
Q 5.859375 10.9375 9.828125 15.625 
Q 13.8125 20.3125 21.34375 26.46875 
Q 33.015625 36.03125 37.109375 41.625 
Q 41.21875 47.21875 41.21875 52.203125 
Q 41.21875 57.421875 37.46875 61 
Q 33.734375 64.59375 27.734375 64.59375 
Q 21.390625 64.59375 17.578125 60.78125 
Q 13.765625 56.984375 13.71875 50.25 
L 4.6875 51.171875 
Q 5.609375 61.28125 11.65625 66.578125 
Q 17.71875 71.875 27.9375 71.875 
Q 38.234375 71.875 44.234375 66.15625 
Q 50.25 60.453125 50.25 52 
Q 50.25 47.703125 48.484375 43.546875 
Q 46.734375 39.40625 42.65625 34.8125 
Q 38.578125 30.21875 29.109375 22.21875 
Q 21.1875 15.578125 18.9375 13.203125 
Q 16.703125 10.84375 15.234375 8.453125 
z
" id="ArialMT-50"/>
      </defs>
      <g style="fill:#262626;" transform="translate(29.746175 288.026931)scale(0.1 -0.1)">
       <use transform="translate(0 0.99375)" xlink:href="#ArialMT-49"/>
       <use transform="translate(55.615234 0.99375)" xlink:href="#ArialMT-48"/>
       <use transform="translate(112.972813 70.6875)scale(0.7)" xlink:href="#ArialMT-8722"/>
       <use transform="translate(153.851719 70.6875)scale(0.7)" xlink:href="#ArialMT-50"/>
      </g>
     </g>
    </g>
    <g id="ytick_2">
     <g id="line2d_4">
      <path clip-path="url(#pb8026311db)" d="M 56.546175 201.193231 
L 560.88 201.193231 
" style="fill:none;stroke:#ffffff;stroke-linecap:round;"/>
     </g>
     <g id="text_5">
      <!-- $\mathdefault{10^{-1}}$ -->
      <g style="fill:#262626;" transform="translate(29.746175 206.349481)scale(0.1 -0.1)">
       <use transform="translate(0 0.99375)" xlink:href="#ArialMT-49"/>
       <use transform="translate(55.615234 0.99375)" xlink:href="#ArialMT-48"/>
       <use transform="translate(112.972813 70.6875)scale(0.7)" xlink:href="#ArialMT-8722"/>
       <use transform="translate(153.851719 70.6875)scale(0.7)" xlink:href="#ArialMT-49"/>
      </g>
     </g>
    </g>
    <g id="ytick_3">
     <g id="line2d_5">
      <path clip-path="url(#pb8026311db)" d="M 56.546175 119.51578 
L 560.88 119.51578 
" style="fill:none;stroke:#ffffff;stroke-linecap:round;"/>
     </g>
     <g id="text_6">
      <!-- $\mathdefault{10^{0}}$ -->
      <g style="fill:#262626;" transform="translate(33.846175 124.67203)scale(0.1 -0.1)">
       <use transform="translate(0 0.99375)" xlink:href="#ArialMT-49"/>
       <use transform="translate(55.615234 0.99375)" xlink:href="#ArialMT-48"/>
       <use transform="translate(112.972813 70.6875)scale(0.7)" xlink:href="#ArialMT-48"/>
      </g>
     </g>
    </g>
    <g id="ytick_4">
     <g id="line2d_6">
      <path clip-path="url(#pb8026311db)" d="M 56.546175 37.838329 
L 560.88 37.838329 
" style="fill:none;stroke:#ffffff;stroke-linecap:round;"/>
     </g>
     <g id="text_7">
      <!-- $\mathdefault{10^{1}}$ -->
      <g style="fill:#262626;" transform="translate(33.846175 42.994579)scale(0.1 -0.1)">
       <use transform="translate(0 0.99375)" xlink:href="#ArialMT-49"/>
       <use transform="translate(55.615234 0.99375)" xlink:href="#ArialMT-48"/>
       <use transform="translate(112.972813 70.6875)scale(0.7)" xlink:href="#ArialMT-49"/>
      </g>
     </g>
    </g>
    <g id="ytick_5"/>
    <g id="ytick_6"/>
    <g id="ytick_7"/>
    <g id="ytick_8"/>
    <g id="ytick_9"/>
    <g id="ytick_10"/>
    <g id="ytick_11"/>
    <g id="ytick_12"/>
    <g id="ytick_13"/>
    <g id="ytick_14"/>
    <g id="ytick_15"/>
    <g id="ytick_16"/>
    <g id="ytick_17"/>
    <g id="ytick_18"/>
    <g id="ytick_19"/>
    <g id="ytick_20"/>
    <g id="ytick_21"/>
    <g id="ytick_22"/>
    <g id="ytick_23"/>
    <g id="ytick_24"/>
    <g id="ytick_25"/>
    <g id="ytick_26"/>
    <g id="ytick_27"/>
    <g id="ytick_28"/>
    <g id="ytick_29"/>
    <g id="ytick_30"/>
    <g id="ytick_31"/>
    <g id="ytick_32"/>
    <g id="ytick_33"/>
    <g id="ytick_34"/>
    <g id="ytick_35"/>
    <g id="ytick_36"/>
    <g id="text_8">
     <!-- DPR -->
     <defs>
      <path d="M 7.71875 0 
L 7.71875 71.578125 
L 32.375 71.578125 
Q 40.71875 71.578125 45.125 70.5625 
Q 51.265625 69.140625 55.609375 65.4375 
Q 61.28125 60.640625 64.078125 53.1875 
Q 66.890625 45.75 66.890625 36.1875 
Q 66.890625 28.03125 64.984375 21.734375 
Q 63.09375 15.4375 60.109375 11.296875 
Q 57.125 7.171875 53.578125 4.796875 
Q 50.046875 2.4375 45.046875 1.21875 
Q 40.046875 0 33.546875 0 
z
M 17.1875 8.453125 
L 32.46875 8.453125 
Q 39.546875 8.453125 43.578125 9.765625 
Q 47.609375 11.078125 50 13.484375 
Q 53.375 16.84375 55.25 22.53125 
Q 57.125 28.21875 57.125 36.328125 
Q 57.125 47.5625 53.4375 53.59375 
Q 49.75 59.625 44.484375 61.671875 
Q 40.671875 63.140625 32.234375 63.140625 
L 17.1875 63.140625 
z
" id="ArialMT-68"/>
      <path d="M 7.71875 0 
L 7.71875 71.578125 
L 34.71875 71.578125 
Q 41.84375 71.578125 45.609375 70.90625 
Q 50.875 70.015625 54.4375 67.546875 
Q 58.015625 65.09375 60.1875 60.640625 
Q 62.359375 56.203125 62.359375 50.875 
Q 62.359375 41.75 56.546875 35.421875 
Q 50.734375 29.109375 35.546875 29.109375 
L 17.1875 29.109375 
L 17.1875 0 
z
M 17.1875 37.546875 
L 35.6875 37.546875 
Q 44.875 37.546875 48.734375 40.96875 
Q 52.59375 44.390625 52.59375 50.59375 
Q 52.59375 55.078125 50.3125 58.265625 
Q 48.046875 61.46875 44.34375 62.5 
Q 41.9375 63.140625 35.5 63.140625 
L 17.1875 63.140625 
z
" id="ArialMT-80"/>
     </defs>
     <g style="fill:#262626;" transform="translate(23.559925 198.724172)rotate(-90)scale(0.11 -0.11)">
      <use xlink:href="#ArialMT-68"/>
      <use x="72.216797" xlink:href="#ArialMT-80"/>
      <use x="138.916016" xlink:href="#ArialMT-82"/>
     </g>
    </g>
   </g>
   <g id="PathCollection_1">
    <defs>
     <path d="M 0 3.5 
C 0.928211 3.5 1.81853 3.131218 2.474874 2.474874 
C 3.131218 1.81853 3.5 0.928211 3.5 0 
C 3.5 -0.928211 3.131218 -1.81853 2.474874 -2.474874 
C 1.81853 -3.131218 0.928211 -3.5 0 -3.5 
C -0.928211 -3.5 -1.81853 -3.131218 -2.474874 -2.474874 
C -3.131218 -1.81853 -3.5 -0.928211 -3.5 0 
C -3.5 0.928211 -3.131218 1.81853 -2.474874 2.474874 
C -1.81853 3.131218 -0.928211 3.5 0 3.5 
z
" id="m905837ab57" style="stroke:#000000;stroke-opacity:0.75;"/>
    </defs>
    <g clip-path="url(#pb8026311db)">
     <use style="fill:#4c72b0;fill-opacity:0.75;stroke:#000000;stroke-opacity:0.75;" x="63.695161" xlink:href="#m905837ab57" y="169.125301"/>
     <use style="fill:#4c72b0;fill-opacity:0.75;stroke:#000000;stroke-opacity:0.75;" x="283.495907" xlink:href="#m905837ab57" y="174.137123"/>
     <use style="fill:#4c72b0;fill-opacity:0.75;stroke:#000000;stroke-opacity:0.75;" x="-1" xlink:href="#m905837ab57" y="155.043314"/>
     <use style="fill:#4c72b0;fill-opacity:0.75;stroke:#000000;stroke-opacity:0.75;" x="-1" xlink:href="#m905837ab57" y="155.25322"/>
     <use style="fill:#4c72b0;fill-opacity:0.75;stroke:#000000;stroke-opacity:0.75;" x="100.636816" xlink:href="#m905837ab57" y="166.073813"/>
     <use style="fill:#4c72b0;fill-opacity:0.75;stroke:#000000;stroke-opacity:0.75;" x="201.344536" xlink:href="#m905837ab57" y="210.475246"/>
     <use style="fill:#4c72b0;fill-opacity:0.75;stroke:#000000;stroke-opacity:0.75;" x="44.6817" xlink:href="#m905837ab57" y="129.116621"/>
     <use style="fill:#4c72b0;fill-opacity:0.75;stroke:#000000;stroke-opacity:0.75;" x="13.573317" xlink:href="#m905837ab57" y="126.28854"/>
     <use style="fill:#4c72b0;fill-opacity:0.75;stroke:#000000;stroke-opacity:0.75;" x="49.091494" xlink:href="#m905837ab57" y="151.088256"/>
     <use style="fill:#4c72b0;fill-opacity:0.75;stroke:#000000;stroke-opacity:0.75;" x="185.67457" xlink:href="#m905837ab57" y="188.511354"/>
     <use style="fill:#4c72b0;fill-opacity:0.75;stroke:#000000;stroke-opacity:0.75;" x="-1" xlink:href="#m905837ab57" y="188.49513"/>
     <use style="fill:#4c72b0;fill-opacity:0.75;stroke:#000000;stroke-opacity:0.75;" x="-1" xlink:href="#m905837ab57" y="174.72546"/>
     <use style="fill:#4c72b0;fill-opacity:0.75;stroke:#000000;stroke-opacity:0.75;" x="241.046472" xlink:href="#m905837ab57" y="174.737548"/>
     <use style="fill:#4c72b0;fill-opacity:0.75;stroke:#000000;stroke-opacity:0.75;" x="213.151434" xlink:href="#m905837ab57" y="176.325968"/>
     <use style="fill:#4c72b0;fill-opacity:0.75;stroke:#000000;stroke-opacity:0.75;" x="-1" xlink:href="#m905837ab57" y="202.082949"/>
     <use style="fill:#4c72b0;fill-opacity:0.75;stroke:#000000;stroke-opacity:0.75;" x="-1" xlink:href="#m905837ab57" y="158.519053"/>
     <use style="fill:#4c72b0;fill-opacity:0.75;stroke:#000000;stroke-opacity:0.75;" x="42.651346" xlink:href="#m905837ab57" y="153.541059"/>
     <use style="fill:#4c72b0;fill-opacity:0.75;stroke:#000000;stroke-opacity:0.75;" x="-1" xlink:href="#m905837ab57" y="153.539777"/>
     <use style="fill:#4c72b0;fill-opacity:0.75;stroke:#000000;stroke-opacity:0.75;" x="-1" xlink:href="#m905837ab57" y="156.013631"/>
     <use style="fill:#4c72b0;fill-opacity:0.75;stroke:#000000;stroke-opacity:0.75;" x="227.472513" xlink:href="#m905837ab57" y="121.631556"/>
     <use style="fill:#4c72b0;fill-opacity:0.75;stroke:#000000;stroke-opacity:0.75;" x="252.372081" xlink:href="#m905837ab57" y="175.852488"/>
     <use style="fill:#4c72b0;fill-opacity:0.75;stroke:#000000;stroke-opacity:0.75;" x="78.324965" xlink:href="#m905837ab57" y="188.021358"/>
     <use style="fill:#4c72b0;fill-opacity:0.75;stroke:#000000;stroke-opacity:0.75;" x="172.769507" xlink:href="#m905837ab57" y="175.925728"/>
     <use style="fill:#4c72b0;fill-opacity:0.75;stroke:#000000;stroke-opacity:0.75;" x="114.275564" xlink:href="#m905837ab57" y="251.088691"/>
     <use style="fill:#4c72b0;fill-opacity:0.75;stroke:#000000;stroke-opacity:0.75;" x="-1" xlink:href="#m905837ab57" y="200.122841"/>
     <use style="fill:#4c72b0;fill-opacity:0.75;stroke:#000000;stroke-opacity:0.75;" x="-1" xlink:href="#m905837ab57" y="140.190273"/>
     <use style="fill:#4c72b0;fill-opacity:0.75;stroke:#000000;stroke-opacity:0.75;" x="61.852027" xlink:href="#m905837ab57" y="140.921008"/>
     <use style="fill:#4c72b0;fill-opacity:0.75;stroke:#000000;stroke-opacity:0.75;" x="-1" xlink:href="#m905837ab57" y="140.91945"/>
     <use style="fill:#4c72b0;fill-opacity:0.75;stroke:#000000;stroke-opacity:0.75;" x="-1" xlink:href="#m905837ab57" y="153.004409"/>
     <use style="fill:#4c72b0;fill-opacity:0.75;stroke:#000000;stroke-opacity:0.75;" x="110.633564" xlink:href="#m905837ab57" y="149.012889"/>
     <use style="fill:#4c72b0;fill-opacity:0.75;stroke:#000000;stroke-opacity:0.75;" x="-1" xlink:href="#m905837ab57" y="276.415393"/>
     <use style="fill:#4c72b0;fill-opacity:0.75;stroke:#000000;stroke-opacity:0.75;" x="-1" xlink:href="#m905837ab57" y="275.641347"/>
     <use style="fill:#4c72b0;fill-opacity:0.75;stroke:#000000;stroke-opacity:0.75;" x="75.128199" xlink:href="#m905837ab57" y="120.203095"/>
     <use style="fill:#4c72b0;fill-opacity:0.75;stroke:#000000;stroke-opacity:0.75;" x="-1" xlink:href="#m905837ab57" y="120.206778"/>
     <use style="fill:#4c72b0;fill-opacity:0.75;stroke:#000000;stroke-opacity:0.75;" x="-1" xlink:href="#m905837ab57" y="178.827255"/>
     <use style="fill:#4c72b0;fill-opacity:0.75;stroke:#000000;stroke-opacity:0.75;" x="306.391516" xlink:href="#m905837ab57" y="178.851736"/>
     <use style="fill:#4c72b0;fill-opacity:0.75;stroke:#000000;stroke-opacity:0.75;" x="-1" xlink:href="#m905837ab57" y="146.45042"/>
     <use style="fill:#4c72b0;fill-opacity:0.75;stroke:#000000;stroke-opacity:0.75;" x="-1" xlink:href="#m905837ab57" y="144.464975"/>
     <use style="fill:#4c72b0;fill-opacity:0.75;stroke:#000000;stroke-opacity:0.75;" x="291.7608" xlink:href="#m905837ab57" y="154.522427"/>
     <use style="fill:#4c72b0;fill-opacity:0.75;stroke:#000000;stroke-opacity:0.75;" x="-1" xlink:href="#m905837ab57" y="145.35811"/>
     <use style="fill:#4c72b0;fill-opacity:0.75;stroke:#000000;stroke-opacity:0.75;" x="-1" xlink:href="#m905837ab57" y="134.398167"/>
     <use style="fill:#4c72b0;fill-opacity:0.75;stroke:#000000;stroke-opacity:0.75;" x="48.597978" xlink:href="#m905837ab57" y="129.606544"/>
     <use style="fill:#4c72b0;fill-opacity:0.75;stroke:#000000;stroke-opacity:0.75;" x="261.071452" xlink:href="#m905837ab57" y="128.493005"/>
     <use style="fill:#4c72b0;fill-opacity:0.75;stroke:#000000;stroke-opacity:0.75;" x="63.280312" xlink:href="#m905837ab57" y="134.504843"/>
     <use style="fill:#4c72b0;fill-opacity:0.75;stroke:#000000;stroke-opacity:0.75;" x="-1" xlink:href="#m905837ab57" y="129.00425"/>
     <use style="fill:#4c72b0;fill-opacity:0.75;stroke:#000000;stroke-opacity:0.75;" x="-1" xlink:href="#m905837ab57" y="181.093206"/>
     <use style="fill:#4c72b0;fill-opacity:0.75;stroke:#000000;stroke-opacity:0.75;" x="14.077866" xlink:href="#m905837ab57" y="181.095958"/>
     <use style="fill:#4c72b0;fill-opacity:0.75;stroke:#000000;stroke-opacity:0.75;" x="-1" xlink:href="#m905837ab57" y="181.7166"/>
     <use style="fill:#4c72b0;fill-opacity:0.75;stroke:#000000;stroke-opacity:0.75;" x="-1" xlink:href="#m905837ab57" y="186.266632"/>
     <use style="fill:#4c72b0;fill-opacity:0.75;stroke:#000000;stroke-opacity:0.75;" x="136.513369" xlink:href="#m905837ab57" y="195.919244"/>
     <use style="fill:#4c72b0;fill-opacity:0.75;stroke:#000000;stroke-opacity:0.75;" x="246.16029" xlink:href="#m905837ab57" y="280.634075"/>
     <use style="fill:#4c72b0;fill-opacity:0.75;stroke:#000000;stroke-opacity:0.75;" x="-1" xlink:href="#m905837ab57" y="185.578185"/>
     <use style="fill:#4c72b0;fill-opacity:0.75;stroke:#000000;stroke-opacity:0.75;" x="-1" xlink:href="#m905837ab57" y="207.515398"/>
     <use style="fill:#4c72b0;fill-opacity:0.75;stroke:#000000;stroke-opacity:0.75;" x="365.871568" xlink:href="#m905837ab57" y="207.646274"/>
     <use style="fill:#4c72b0;fill-opacity:0.75;stroke:#000000;stroke-opacity:0.75;" x="111.993135" xlink:href="#m905837ab57" y="128.086809"/>
     <use style="fill:#4c72b0;fill-opacity:0.75;stroke:#000000;stroke-opacity:0.75;" x="-1" xlink:href="#m905837ab57" y="127.465259"/>
     <use style="fill:#4c72b0;fill-opacity:0.75;stroke:#000000;stroke-opacity:0.75;" x="-1" xlink:href="#m905837ab57" y="142.005636"/>
     <use style="fill:#4c72b0;fill-opacity:0.75;stroke:#000000;stroke-opacity:0.75;" x="138.378322" xlink:href="#m905837ab57" y="161.477426"/>
     <use style="fill:#4c72b0;fill-opacity:0.75;stroke:#000000;stroke-opacity:0.75;" x="304.879842" xlink:href="#m905837ab57" y="190.961661"/>
     <use style="fill:#4c72b0;fill-opacity:0.75;stroke:#000000;stroke-opacity:0.75;" x="-1" xlink:href="#m905837ab57" y="190.927772"/>
     <use style="fill:#4c72b0;fill-opacity:0.75;stroke:#000000;stroke-opacity:0.75;" x="-1" xlink:href="#m905837ab57" y="174.205074"/>
     <use style="fill:#4c72b0;fill-opacity:0.75;stroke:#000000;stroke-opacity:0.75;" x="72.059016" xlink:href="#m905837ab57" y="174.2105"/>
     <use style="fill:#4c72b0;fill-opacity:0.75;stroke:#000000;stroke-opacity:0.75;" x="-1" xlink:href="#m905837ab57" y="167.750477"/>
     <use style="fill:#4c72b0;fill-opacity:0.75;stroke:#000000;stroke-opacity:0.75;" x="-1" xlink:href="#m905837ab57" y="142.311355"/>
     <use style="fill:#4c72b0;fill-opacity:0.75;stroke:#000000;stroke-opacity:0.75;" x="172.757122" xlink:href="#m905837ab57" y="140.114203"/>
     <use style="fill:#4c72b0;fill-opacity:0.75;stroke:#000000;stroke-opacity:0.75;" x="11.515922" xlink:href="#m905837ab57" y="142.524567"/>
     <use style="fill:#4c72b0;fill-opacity:0.75;stroke:#000000;stroke-opacity:0.75;" x="-1" xlink:href="#m905837ab57" y="145.763492"/>
     <use style="fill:#4c72b0;fill-opacity:0.75;stroke:#000000;stroke-opacity:0.75;" x="-1" xlink:href="#m905837ab57" y="169.860717"/>
     <use style="fill:#4c72b0;fill-opacity:0.75;stroke:#000000;stroke-opacity:0.75;" x="415.30422" xlink:href="#m905837ab57" y="169.922898"/>
     <use style="fill:#4c72b0;fill-opacity:0.75;stroke:#000000;stroke-opacity:0.75;" x="136.739391" xlink:href="#m905837ab57" y="156.175984"/>
     <use style="fill:#4c72b0;fill-opacity:0.75;stroke:#000000;stroke-opacity:0.75;" x="64.979178" xlink:href="#m905837ab57" y="176.666794"/>
     <use style="fill:#4c72b0;fill-opacity:0.75;stroke:#000000;stroke-opacity:0.75;" x="158.665803" xlink:href="#m905837ab57" y="137.797143"/>
     <use style="fill:#4c72b0;fill-opacity:0.75;stroke:#000000;stroke-opacity:0.75;" x="31.786894" xlink:href="#m905837ab57" y="138.396498"/>
     <use style="fill:#4c72b0;fill-opacity:0.75;stroke:#000000;stroke-opacity:0.75;" x="331.468555" xlink:href="#m905837ab57" y="163.864755"/>
     <use style="fill:#4c72b0;fill-opacity:0.75;stroke:#000000;stroke-opacity:0.75;" x="158.699753" xlink:href="#m905837ab57" y="135.932384"/>
     <use style="fill:#4c72b0;fill-opacity:0.75;stroke:#000000;stroke-opacity:0.75;" x="27.958796" xlink:href="#m905837ab57" y="122.637904"/>
     <use style="fill:#4c72b0;fill-opacity:0.75;stroke:#000000;stroke-opacity:0.75;" x="32.101213" xlink:href="#m905837ab57" y="142.944524"/>
     <use style="fill:#4c72b0;fill-opacity:0.75;stroke:#000000;stroke-opacity:0.75;" x="-1" xlink:href="#m905837ab57" y="149.899029"/>
     <use style="fill:#4c72b0;fill-opacity:0.75;stroke:#000000;stroke-opacity:0.75;" x="-1" xlink:href="#m905837ab57" y="170.722393"/>
     <use style="fill:#4c72b0;fill-opacity:0.75;stroke:#000000;stroke-opacity:0.75;" x="164.185982" xlink:href="#m905837ab57" y="150.467724"/>
     <use style="fill:#4c72b0;fill-opacity:0.75;stroke:#000000;stroke-opacity:0.75;" x="-1" xlink:href="#m905837ab57" y="106.319679"/>
     <use style="fill:#4c72b0;fill-opacity:0.75;stroke:#000000;stroke-opacity:0.75;" x="-1" xlink:href="#m905837ab57" y="101.221114"/>
     <use style="fill:#4c72b0;fill-opacity:0.75;stroke:#000000;stroke-opacity:0.75;" x="386.905808" xlink:href="#m905837ab57" y="163.218171"/>
     <use style="fill:#4c72b0;fill-opacity:0.75;stroke:#000000;stroke-opacity:0.75;" x="233.278371" xlink:href="#m905837ab57" y="192.870167"/>
     <use style="fill:#4c72b0;fill-opacity:0.75;stroke:#000000;stroke-opacity:0.75;" x="317.507984" xlink:href="#m905837ab57" y="197.674929"/>
     <use style="fill:#4c72b0;fill-opacity:0.75;stroke:#000000;stroke-opacity:0.75;" x="-1" xlink:href="#m905837ab57" y="179.844833"/>
     <use style="fill:#4c72b0;fill-opacity:0.75;stroke:#000000;stroke-opacity:0.75;" x="-1" xlink:href="#m905837ab57" y="151.977048"/>
     <use style="fill:#4c72b0;fill-opacity:0.75;stroke:#000000;stroke-opacity:0.75;" x="229.903273" xlink:href="#m905837ab57" y="167.190977"/>
     <use style="fill:#4c72b0;fill-opacity:0.75;stroke:#000000;stroke-opacity:0.75;" x="7.847096" xlink:href="#m905837ab57" y="170.706161"/>
     <use style="fill:#4c72b0;fill-opacity:0.75;stroke:#000000;stroke-opacity:0.75;" x="-1" xlink:href="#m905837ab57" y="170.705119"/>
     <use style="fill:#4c72b0;fill-opacity:0.75;stroke:#000000;stroke-opacity:0.75;" x="-1" xlink:href="#m905837ab57" y="122.726529"/>
     <use style="fill:#4c72b0;fill-opacity:0.75;stroke:#000000;stroke-opacity:0.75;" x="26.563672" xlink:href="#m905837ab57" y="122.726885"/>
     <use style="fill:#4c72b0;fill-opacity:0.75;stroke:#000000;stroke-opacity:0.75;" x="167.814459" xlink:href="#m905837ab57" y="157.614087"/>
     <use style="fill:#4c72b0;fill-opacity:0.75;stroke:#000000;stroke-opacity:0.75;" x="309.237681" xlink:href="#m905837ab57" y="196.199143"/>
     <use style="fill:#4c72b0;fill-opacity:0.75;stroke:#000000;stroke-opacity:0.75;" x="99.480932" xlink:href="#m905837ab57" y="166.736137"/>
     <use style="fill:#4c72b0;fill-opacity:0.75;stroke:#000000;stroke-opacity:0.75;" x="150.860372" xlink:href="#m905837ab57" y="194.484481"/>
     <use style="fill:#4c72b0;fill-opacity:0.75;stroke:#000000;stroke-opacity:0.75;" x="288.952587" xlink:href="#m905837ab57" y="144.220263"/>
     <use style="fill:#4c72b0;fill-opacity:0.75;stroke:#000000;stroke-opacity:0.75;" x="193.907318" xlink:href="#m905837ab57" y="143.717897"/>
     <use style="fill:#4c72b0;fill-opacity:0.75;stroke:#000000;stroke-opacity:0.75;" x="-1" xlink:href="#m905837ab57" y="143.720728"/>
     <use style="fill:#4c72b0;fill-opacity:0.75;stroke:#000000;stroke-opacity:0.75;" x="-1" xlink:href="#m905837ab57" y="160.943218"/>
     <use style="fill:#4c72b0;fill-opacity:0.75;stroke:#000000;stroke-opacity:0.75;" x="102.515819" xlink:href="#m905837ab57" y="166.749917"/>
     <use style="fill:#4c72b0;fill-opacity:0.75;stroke:#000000;stroke-opacity:0.75;" x="-1" xlink:href="#m905837ab57" y="158.926091"/>
     <use style="fill:#4c72b0;fill-opacity:0.75;stroke:#000000;stroke-opacity:0.75;" x="-1" xlink:href="#m905837ab57" y="159.985926"/>
     <use style="fill:#4c72b0;fill-opacity:0.75;stroke:#000000;stroke-opacity:0.75;" x="118.400706" xlink:href="#m905837ab57" y="172.183724"/>
     <use style="fill:#4c72b0;fill-opacity:0.75;stroke:#000000;stroke-opacity:0.75;" x="-1" xlink:href="#m905837ab57" y="160.371359"/>
     <use style="fill:#4c72b0;fill-opacity:0.75;stroke:#000000;stroke-opacity:0.75;" x="-1" xlink:href="#m905837ab57" y="175.447228"/>
     <use style="fill:#4c72b0;fill-opacity:0.75;stroke:#000000;stroke-opacity:0.75;" x="293.169986" xlink:href="#m905837ab57" y="175.487324"/>
    </g>
   </g>
   <g id="patch_3">
    <path d="M 56.546175 344.406625 
L 56.546175 29.81625 
" style="fill:none;"/>
   </g>
   <g id="patch_4">
    <path d="M 560.88 344.406625 
L 560.88 29.81625 
" style="fill:none;"/>
   </g>
   <g id="patch_5">
    <path d="M 56.546175 344.406625 
L 560.88 344.406625 
" style="fill:none;"/>
   </g>
   <g id="patch_6">
    <path d="M 56.546175 29.81625 
L 560.88 29.81625 
" style="fill:none;"/>
   </g>
   <g id="text_9">
    <!-- Scatterplot for log data -->
    <defs>
     <path d="M 40.4375 19 
L 49.078125 17.875 
Q 47.65625 8.9375 41.8125 3.875 
Q 35.984375 -1.171875 27.484375 -1.171875 
Q 16.84375 -1.171875 10.375 5.78125 
Q 3.90625 12.75 3.90625 25.734375 
Q 3.90625 34.125 6.6875 40.421875 
Q 9.46875 46.734375 15.15625 49.875 
Q 20.84375 53.03125 27.546875 53.03125 
Q 35.984375 53.03125 41.359375 48.75 
Q 46.734375 44.484375 48.25 36.625 
L 39.703125 35.296875 
Q 38.484375 40.53125 35.375 43.15625 
Q 32.28125 45.796875 27.875 45.796875 
Q 21.234375 45.796875 17.078125 41.03125 
Q 12.9375 36.28125 12.9375 25.984375 
Q 12.9375 15.53125 16.9375 10.796875 
Q 20.953125 6.0625 27.390625 6.0625 
Q 32.5625 6.0625 36.03125 9.234375 
Q 39.5 12.40625 40.4375 19 
z
" id="ArialMT-99"/>
     <path d="M 40.4375 6.390625 
Q 35.546875 2.25 31.03125 0.53125 
Q 26.515625 -1.171875 21.34375 -1.171875 
Q 12.796875 -1.171875 8.203125 3 
Q 3.609375 7.171875 3.609375 13.671875 
Q 3.609375 17.484375 5.34375 20.625 
Q 7.078125 23.78125 9.890625 25.6875 
Q 12.703125 27.59375 16.21875 28.5625 
Q 18.796875 29.25 24.03125 29.890625 
Q 34.671875 31.15625 39.703125 32.90625 
Q 39.75 34.71875 39.75 35.203125 
Q 39.75 40.578125 37.25 42.78125 
Q 33.890625 45.75 27.25 45.75 
Q 21.046875 45.75 18.09375 43.578125 
Q 15.140625 41.40625 13.71875 35.890625 
L 5.125 37.0625 
Q 6.296875 42.578125 8.984375 45.96875 
Q 11.671875 49.359375 16.75 51.1875 
Q 21.828125 53.03125 28.515625 53.03125 
Q 35.15625 53.03125 39.296875 51.46875 
Q 43.453125 49.90625 45.40625 47.53125 
Q 47.359375 45.171875 48.140625 41.546875 
Q 48.578125 39.3125 48.578125 33.453125 
L 48.578125 21.734375 
Q 48.578125 9.46875 49.140625 6.21875 
Q 49.703125 2.984375 51.375 0 
L 42.1875 0 
Q 40.828125 2.734375 40.4375 6.390625 
z
M 39.703125 26.03125 
Q 34.90625 24.078125 25.34375 22.703125 
Q 19.921875 21.921875 17.671875 20.9375 
Q 15.4375 19.96875 14.203125 18.09375 
Q 12.984375 16.21875 12.984375 13.921875 
Q 12.984375 10.40625 15.640625 8.0625 
Q 18.3125 5.71875 23.4375 5.71875 
Q 28.515625 5.71875 32.46875 7.9375 
Q 36.421875 10.15625 38.28125 14.015625 
Q 39.703125 17 39.703125 22.796875 
z
" id="ArialMT-97"/>
     <path d="M 25.78125 7.859375 
L 27.046875 0.09375 
Q 23.34375 -0.6875 20.40625 -0.6875 
Q 15.625 -0.6875 12.984375 0.828125 
Q 10.359375 2.34375 9.28125 4.8125 
Q 8.203125 7.28125 8.203125 15.1875 
L 8.203125 45.015625 
L 1.765625 45.015625 
L 1.765625 51.859375 
L 8.203125 51.859375 
L 8.203125 64.703125 
L 16.9375 69.96875 
L 16.9375 51.859375 
L 25.78125 51.859375 
L 25.78125 45.015625 
L 16.9375 45.015625 
L 16.9375 14.703125 
Q 16.9375 10.9375 17.40625 9.859375 
Q 17.875 8.796875 18.921875 8.15625 
Q 19.96875 7.515625 21.921875 7.515625 
Q 23.390625 7.515625 25.78125 7.859375 
z
" id="ArialMT-116"/>
     <path d="M 42.09375 16.703125 
L 51.171875 15.578125 
Q 49.03125 7.625 43.21875 3.21875 
Q 37.40625 -1.171875 28.375 -1.171875 
Q 17 -1.171875 10.328125 5.828125 
Q 3.65625 12.84375 3.65625 25.484375 
Q 3.65625 38.578125 10.390625 45.796875 
Q 17.140625 53.03125 27.875 53.03125 
Q 38.28125 53.03125 44.875 45.953125 
Q 51.46875 38.875 51.46875 26.03125 
Q 51.46875 25.25 51.421875 23.6875 
L 12.75 23.6875 
Q 13.234375 15.140625 17.578125 10.59375 
Q 21.921875 6.0625 28.421875 6.0625 
Q 33.25 6.0625 36.671875 8.59375 
Q 40.09375 11.140625 42.09375 16.703125 
z
M 13.234375 30.90625 
L 42.1875 30.90625 
Q 41.609375 37.453125 38.875 40.71875 
Q 34.671875 45.796875 27.984375 45.796875 
Q 21.921875 45.796875 17.796875 41.75 
Q 13.671875 37.703125 13.234375 30.90625 
z
" id="ArialMT-101"/>
     <path d="M 6.5 0 
L 6.5 51.859375 
L 14.40625 51.859375 
L 14.40625 44 
Q 17.4375 49.515625 20 51.265625 
Q 22.5625 53.03125 25.640625 53.03125 
Q 30.078125 53.03125 34.671875 50.203125 
L 31.640625 42.046875 
Q 28.421875 43.953125 25.203125 43.953125 
Q 22.3125 43.953125 20.015625 42.21875 
Q 17.71875 40.484375 16.75 37.40625 
Q 15.28125 32.71875 15.28125 27.15625 
L 15.28125 0 
z
" id="ArialMT-114"/>
     <path d="M 6.59375 -19.875 
L 6.59375 51.859375 
L 14.59375 51.859375 
L 14.59375 45.125 
Q 17.4375 49.078125 21 51.046875 
Q 24.5625 53.03125 29.640625 53.03125 
Q 36.28125 53.03125 41.359375 49.609375 
Q 46.4375 46.1875 49.015625 39.953125 
Q 51.609375 33.734375 51.609375 26.3125 
Q 51.609375 18.359375 48.75 11.984375 
Q 45.90625 5.609375 40.453125 2.21875 
Q 35.015625 -1.171875 29 -1.171875 
Q 24.609375 -1.171875 21.109375 0.6875 
Q 17.625 2.546875 15.375 5.375 
L 15.375 -19.875 
z
M 14.546875 25.640625 
Q 14.546875 15.625 18.59375 10.84375 
Q 22.65625 6.0625 28.421875 6.0625 
Q 34.28125 6.0625 38.453125 11.015625 
Q 42.625 15.96875 42.625 26.375 
Q 42.625 36.28125 38.546875 41.203125 
Q 34.46875 46.140625 28.8125 46.140625 
Q 23.1875 46.140625 18.859375 40.890625 
Q 14.546875 35.640625 14.546875 25.640625 
z
" id="ArialMT-112"/>
     <path d="M 6.390625 0 
L 6.390625 71.578125 
L 15.1875 71.578125 
L 15.1875 0 
z
" id="ArialMT-108"/>
     <path d="M 3.328125 25.921875 
Q 3.328125 40.328125 11.328125 47.265625 
Q 18.015625 53.03125 27.640625 53.03125 
Q 38.328125 53.03125 45.109375 46.015625 
Q 51.90625 39.015625 51.90625 26.65625 
Q 51.90625 16.65625 48.90625 10.90625 
Q 45.90625 5.171875 40.15625 2 
Q 34.421875 -1.171875 27.640625 -1.171875 
Q 16.75 -1.171875 10.03125 5.8125 
Q 3.328125 12.796875 3.328125 25.921875 
z
M 12.359375 25.921875 
Q 12.359375 15.96875 16.703125 11.015625 
Q 21.046875 6.0625 27.640625 6.0625 
Q 34.1875 6.0625 38.53125 11.03125 
Q 42.875 16.015625 42.875 26.21875 
Q 42.875 35.84375 38.5 40.796875 
Q 34.125 45.75 27.640625 45.75 
Q 21.046875 45.75 16.703125 40.8125 
Q 12.359375 35.890625 12.359375 25.921875 
z
" id="ArialMT-111"/>
     <path d="M 8.6875 0 
L 8.6875 45.015625 
L 0.921875 45.015625 
L 0.921875 51.859375 
L 8.6875 51.859375 
L 8.6875 57.375 
Q 8.6875 62.59375 9.625 65.140625 
Q 10.890625 68.5625 14.078125 70.671875 
Q 17.28125 72.796875 23.046875 72.796875 
Q 26.765625 72.796875 31.25 71.921875 
L 29.9375 64.265625 
Q 27.203125 64.75 24.75 64.75 
Q 20.75 64.75 19.09375 63.03125 
Q 17.4375 61.328125 17.4375 56.640625 
L 17.4375 51.859375 
L 27.546875 51.859375 
L 27.546875 45.015625 
L 17.4375 45.015625 
L 17.4375 0 
z
" id="ArialMT-102"/>
     <path d="M 4.984375 -4.296875 
L 13.53125 -5.5625 
Q 14.0625 -9.515625 16.5 -11.328125 
Q 19.78125 -13.765625 25.4375 -13.765625 
Q 31.546875 -13.765625 34.859375 -11.328125 
Q 38.1875 -8.890625 39.359375 -4.5 
Q 40.046875 -1.8125 39.984375 6.78125 
Q 34.234375 0 25.640625 0 
Q 14.9375 0 9.078125 7.71875 
Q 3.21875 15.4375 3.21875 26.21875 
Q 3.21875 33.640625 5.90625 39.90625 
Q 8.59375 46.1875 13.6875 49.609375 
Q 18.796875 53.03125 25.6875 53.03125 
Q 34.859375 53.03125 40.828125 45.609375 
L 40.828125 51.859375 
L 48.921875 51.859375 
L 48.921875 7.03125 
Q 48.921875 -5.078125 46.453125 -10.125 
Q 44 -15.1875 38.640625 -18.109375 
Q 33.296875 -21.046875 25.484375 -21.046875 
Q 16.21875 -21.046875 10.5 -16.875 
Q 4.78125 -12.703125 4.984375 -4.296875 
z
M 12.25 26.859375 
Q 12.25 16.65625 16.296875 11.96875 
Q 20.359375 7.28125 26.46875 7.28125 
Q 32.515625 7.28125 36.609375 11.9375 
Q 40.71875 16.609375 40.71875 26.5625 
Q 40.71875 36.078125 36.5 40.90625 
Q 32.28125 45.75 26.3125 45.75 
Q 20.453125 45.75 16.34375 40.984375 
Q 12.25 36.234375 12.25 26.859375 
z
" id="ArialMT-103"/>
     <path d="M 40.234375 0 
L 40.234375 6.546875 
Q 35.296875 -1.171875 25.734375 -1.171875 
Q 19.53125 -1.171875 14.328125 2.25 
Q 9.125 5.671875 6.265625 11.796875 
Q 3.421875 17.921875 3.421875 25.875 
Q 3.421875 33.640625 6 39.96875 
Q 8.59375 46.296875 13.765625 49.65625 
Q 18.953125 53.03125 25.34375 53.03125 
Q 30.03125 53.03125 33.6875 51.046875 
Q 37.359375 49.078125 39.65625 45.90625 
L 39.65625 71.578125 
L 48.390625 71.578125 
L 48.390625 0 
z
M 12.453125 25.875 
Q 12.453125 15.921875 16.640625 10.984375 
Q 20.84375 6.0625 26.5625 6.0625 
Q 32.328125 6.0625 36.34375 10.765625 
Q 40.375 15.484375 40.375 25.140625 
Q 40.375 35.796875 36.265625 40.765625 
Q 32.171875 45.75 26.171875 45.75 
Q 20.3125 45.75 16.375 40.96875 
Q 12.453125 36.1875 12.453125 25.875 
z
" id="ArialMT-100"/>
    </defs>
    <g style="fill:#262626;" transform="translate(248.3484 23.81625)scale(0.12 -0.12)">
     <use xlink:href="#ArialMT-83"/>
     <use x="66.699219" xlink:href="#ArialMT-99"/>
     <use x="116.699219" xlink:href="#ArialMT-97"/>
     <use x="172.314453" xlink:href="#ArialMT-116"/>
     <use x="200.097656" xlink:href="#ArialMT-116"/>
     <use x="227.880859" xlink:href="#ArialMT-101"/>
     <use x="283.496094" xlink:href="#ArialMT-114"/>
     <use x="316.796875" xlink:href="#ArialMT-112"/>
     <use x="372.412109" xlink:href="#ArialMT-108"/>
     <use x="394.628906" xlink:href="#ArialMT-111"/>
     <use x="450.244141" xlink:href="#ArialMT-116"/>
     <use x="478.027344" xlink:href="#ArialMT-32"/>
     <use x="505.810547" xlink:href="#ArialMT-102"/>
     <use x="533.59375" xlink:href="#ArialMT-111"/>
     <use x="589.208984" xlink:href="#ArialMT-114"/>
     <use x="622.509766" xlink:href="#ArialMT-32"/>
     <use x="650.292969" xlink:href="#ArialMT-108"/>
     <use x="672.509766" xlink:href="#ArialMT-111"/>
     <use x="728.125" xlink:href="#ArialMT-103"/>
     <use x="783.740234" xlink:href="#ArialMT-32"/>
     <use x="811.523438" xlink:href="#ArialMT-100"/>
     <use x="867.138672" xlink:href="#ArialMT-97"/>
     <use x="922.753906" xlink:href="#ArialMT-116"/>
     <use x="950.537109" xlink:href="#ArialMT-97"/>
    </g>
   </g>
  </g>
 </g>
 <defs>
  <clipPath id="pb8026311db">
   <rect height="314.590375" width="504.333825" x="56.546175" y="29.81625"/>
  </clipPath>
 </defs>
</svg>
