<?xml version="1.0" encoding="utf-8" standalone="no"?>
<!DOCTYPE svg PUBLIC "-//W3C//DTD SVG 1.1//EN"
  "http://www.w3.org/Graphics/SVG/1.1/DTD/svg11.dtd">
<!-- Created with matplotlib (https://matplotlib.org/) -->
<svg height="396pt" version="1.1" viewBox="0 0 576 396" width="576pt" xmlns="http://www.w3.org/2000/svg" xmlns:xlink="http://www.w3.org/1999/xlink">
 <defs>
  <style type="text/css">
*{stroke-linecap:butt;stroke-linejoin:round;}
  </style>
 </defs>
 <g id="figure_1">
  <g id="patch_1">
   <path d="M 0 396 
L 576 396 
L 576 0 
L 0 0 
z
" style="fill:#f0f0f0;"/>
  </g>
  <g id="axes_1">
   <g id="patch_2">
    <path d="M 56.546175 344.406625 
L 560.88 344.406625 
L 560.88 29.81625 
L 56.546175 29.81625 
z
" style="fill:#eaeaf2;"/>
   </g>
   <g id="matplotlib.axis_1">
    <g id="xtick_1">
     <g id="line2d_1">
      <path clip-path="url(#pc227d0473c)" d="M 167.128593 344.406625 
L 167.128593 29.81625 
" style="fill:none;stroke:#ffffff;stroke-linecap:round;"/>
     </g>
     <g id="text_1">
      <!-- $\mathdefault{10^{0}}$ -->
      <defs>
       <path d="M 37.25 0 
L 28.46875 0 
L 28.46875 56 
Q 25.296875 52.984375 20.140625 49.953125 
Q 14.984375 46.921875 10.890625 45.40625 
L 10.890625 53.90625 
Q 18.265625 57.375 23.78125 62.296875 
Q 29.296875 67.234375 31.59375 71.875 
L 37.25 71.875 
z
" id="ArialMT-49"/>
       <path d="M 4.15625 35.296875 
Q 4.15625 48 6.765625 55.734375 
Q 9.375 63.484375 14.515625 67.671875 
Q 19.671875 71.875 27.484375 71.875 
Q 33.25 71.875 37.59375 69.546875 
Q 41.9375 67.234375 44.765625 62.859375 
Q 47.609375 58.5 49.21875 52.21875 
Q 50.828125 45.953125 50.828125 35.296875 
Q 50.828125 22.703125 48.234375 14.96875 
Q 45.65625 7.234375 40.5 3 
Q 35.359375 -1.21875 27.484375 -1.21875 
Q 17.140625 -1.21875 11.234375 6.203125 
Q 4.15625 15.140625 4.15625 35.296875 
z
M 13.1875 35.296875 
Q 13.1875 17.671875 17.3125 11.828125 
Q 21.4375 6 27.484375 6 
Q 33.546875 6 37.671875 11.859375 
Q 41.796875 17.71875 41.796875 35.296875 
Q 41.796875 52.984375 37.671875 58.78125 
Q 33.546875 64.59375 27.390625 64.59375 
Q 21.34375 64.59375 17.71875 59.46875 
Q 13.1875 52.9375 13.1875 35.296875 
z
" id="ArialMT-48"/>
      </defs>
      <g style="fill:#262626;" transform="translate(159.278593 361.719125)scale(0.1 -0.1)">
       <use transform="translate(0 0.99375)" xlink:href="#ArialMT-49"/>
       <use transform="translate(55.615234 0.99375)" xlink:href="#ArialMT-48"/>
       <use transform="translate(112.972813 70.6875)scale(0.7)" xlink:href="#ArialMT-48"/>
      </g>
     </g>
    </g>
    <g id="xtick_2"/>
    <g id="xtick_3"/>
    <g id="xtick_4"/>
    <g id="xtick_5"/>
    <g id="xtick_6"/>
    <g id="xtick_7"/>
    <g id="xtick_8"/>
    <g id="xtick_9"/>
    <g id="xtick_10"/>
    <g id="xtick_11"/>
    <g id="xtick_12"/>
    <g id="xtick_13"/>
    <g id="text_2">
     <!-- LIQUIDITY -->
     <defs>
      <path d="M 7.328125 0 
L 7.328125 71.578125 
L 16.796875 71.578125 
L 16.796875 8.453125 
L 52.046875 8.453125 
L 52.046875 0 
z
" id="ArialMT-76"/>
      <path d="M 9.328125 0 
L 9.328125 71.578125 
L 18.796875 71.578125 
L 18.796875 0 
z
" id="ArialMT-73"/>
      <path d="M 61.96875 7.671875 
Q 68.5625 3.125 74.125 1.03125 
L 71.34375 -5.5625 
Q 63.625 -2.78125 55.953125 3.21875 
Q 48 -1.21875 38.375 -1.21875 
Q 28.65625 -1.21875 20.75 3.46875 
Q 12.84375 8.15625 8.5625 16.640625 
Q 4.296875 25.140625 4.296875 35.796875 
Q 4.296875 46.390625 8.59375 55.078125 
Q 12.890625 63.765625 20.828125 68.3125 
Q 28.765625 72.859375 38.578125 72.859375 
Q 48.484375 72.859375 56.4375 68.140625 
Q 64.40625 63.421875 68.578125 54.953125 
Q 72.75 46.484375 72.75 35.84375 
Q 72.75 27 70.0625 19.9375 
Q 67.390625 12.890625 61.96875 7.671875 
z
M 41.109375 19.78125 
Q 49.3125 17.484375 54.640625 12.9375 
Q 62.984375 20.5625 62.984375 35.84375 
Q 62.984375 44.53125 60.03125 51.015625 
Q 57.078125 57.515625 51.390625 61.109375 
Q 45.703125 64.703125 38.625 64.703125 
Q 28.03125 64.703125 21.046875 57.453125 
Q 14.0625 50.203125 14.0625 35.796875 
Q 14.0625 21.828125 20.96875 14.359375 
Q 27.875 6.890625 38.625 6.890625 
Q 43.703125 6.890625 48.1875 8.796875 
Q 43.75 11.671875 38.8125 12.890625 
z
" id="ArialMT-81"/>
      <path d="M 54.6875 71.578125 
L 64.15625 71.578125 
L 64.15625 30.21875 
Q 64.15625 19.4375 61.71875 13.078125 
Q 59.28125 6.734375 52.90625 2.75 
Q 46.53125 -1.21875 36.1875 -1.21875 
Q 26.125 -1.21875 19.71875 2.25 
Q 13.328125 5.71875 10.59375 12.28125 
Q 7.859375 18.84375 7.859375 30.21875 
L 7.859375 71.578125 
L 17.328125 71.578125 
L 17.328125 30.28125 
Q 17.328125 20.953125 19.0625 16.53125 
Q 20.796875 12.109375 25.015625 9.71875 
Q 29.25 7.328125 35.359375 7.328125 
Q 45.796875 7.328125 50.234375 12.0625 
Q 54.6875 16.796875 54.6875 30.28125 
z
" id="ArialMT-85"/>
      <path d="M 7.71875 0 
L 7.71875 71.578125 
L 32.375 71.578125 
Q 40.71875 71.578125 45.125 70.5625 
Q 51.265625 69.140625 55.609375 65.4375 
Q 61.28125 60.640625 64.078125 53.1875 
Q 66.890625 45.75 66.890625 36.1875 
Q 66.890625 28.03125 64.984375 21.734375 
Q 63.09375 15.4375 60.109375 11.296875 
Q 57.125 7.171875 53.578125 4.796875 
Q 50.046875 2.4375 45.046875 1.21875 
Q 40.046875 0 33.546875 0 
z
M 17.1875 8.453125 
L 32.46875 8.453125 
Q 39.546875 8.453125 43.578125 9.765625 
Q 47.609375 11.078125 50 13.484375 
Q 53.375 16.84375 55.25 22.53125 
Q 57.125 28.21875 57.125 36.328125 
Q 57.125 47.5625 53.4375 53.59375 
Q 49.75 59.625 44.484375 61.671875 
Q 40.671875 63.140625 32.234375 63.140625 
L 17.1875 63.140625 
z
" id="ArialMT-68"/>
      <path d="M 25.921875 0 
L 25.921875 63.140625 
L 2.34375 63.140625 
L 2.34375 71.578125 
L 59.078125 71.578125 
L 59.078125 63.140625 
L 35.40625 63.140625 
L 35.40625 0 
z
" id="ArialMT-84"/>
      <path d="M 27.875 0 
L 27.875 30.328125 
L 0.296875 71.578125 
L 11.8125 71.578125 
L 25.921875 50 
Q 29.828125 43.953125 33.203125 37.890625 
Q 36.421875 43.5 41.015625 50.53125 
L 54.890625 71.578125 
L 65.921875 71.578125 
L 37.359375 30.328125 
L 37.359375 0 
z
" id="ArialMT-89"/>
     </defs>
     <g style="fill:#262626;" transform="translate(281.820666 375.580219)scale(0.11 -0.11)">
      <use xlink:href="#ArialMT-76"/>
      <use x="55.615234" xlink:href="#ArialMT-73"/>
      <use x="83.398438" xlink:href="#ArialMT-81"/>
      <use x="161.181641" xlink:href="#ArialMT-85"/>
      <use x="233.398438" xlink:href="#ArialMT-73"/>
      <use x="261.181641" xlink:href="#ArialMT-68"/>
      <use x="333.398438" xlink:href="#ArialMT-73"/>
      <use x="361.181641" xlink:href="#ArialMT-84"/>
      <use x="422.265625" xlink:href="#ArialMT-89"/>
     </g>
    </g>
   </g>
   <g id="matplotlib.axis_2">
    <g id="ytick_1">
     <g id="line2d_2">
      <path clip-path="url(#pc227d0473c)" d="M 56.546175 284.561953 
L 560.88 284.561953 
" style="fill:none;stroke:#ffffff;stroke-linecap:round;"/>
     </g>
     <g id="text_3">
      <!-- $\mathdefault{10^{-2}}$ -->
      <defs>
       <path d="M 52.828125 31.203125 
L 5.5625 31.203125 
L 5.5625 39.40625 
L 52.828125 39.40625 
z
" id="ArialMT-8722"/>
       <path d="M 50.34375 8.453125 
L 50.34375 0 
L 3.03125 0 
Q 2.9375 3.171875 4.046875 6.109375 
Q 5.859375 10.9375 9.828125 15.625 
Q 13.8125 20.3125 21.34375 26.46875 
Q 33.015625 36.03125 37.109375 41.625 
Q 41.21875 47.21875 41.21875 52.203125 
Q 41.21875 57.421875 37.46875 61 
Q 33.734375 64.59375 27.734375 64.59375 
Q 21.390625 64.59375 17.578125 60.78125 
Q 13.765625 56.984375 13.71875 50.25 
L 4.6875 51.171875 
Q 5.609375 61.28125 11.65625 66.578125 
Q 17.71875 71.875 27.9375 71.875 
Q 38.234375 71.875 44.234375 66.15625 
Q 50.25 60.453125 50.25 52 
Q 50.25 47.703125 48.484375 43.546875 
Q 46.734375 39.40625 42.65625 34.8125 
Q 38.578125 30.21875 29.109375 22.21875 
Q 21.1875 15.578125 18.9375 13.203125 
Q 16.703125 10.84375 15.234375 8.453125 
z
" id="ArialMT-50"/>
      </defs>
      <g style="fill:#262626;" transform="translate(29.746175 289.718203)scale(0.1 -0.1)">
       <use transform="translate(0 0.99375)" xlink:href="#ArialMT-49"/>
       <use transform="translate(55.615234 0.99375)" xlink:href="#ArialMT-48"/>
       <use transform="translate(112.972813 70.6875)scale(0.7)" xlink:href="#ArialMT-8722"/>
       <use transform="translate(153.851719 70.6875)scale(0.7)" xlink:href="#ArialMT-50"/>
      </g>
     </g>
    </g>
    <g id="ytick_2">
     <g id="line2d_3">
      <path clip-path="url(#pc227d0473c)" d="M 56.546175 202.305698 
L 560.88 202.305698 
" style="fill:none;stroke:#ffffff;stroke-linecap:round;"/>
     </g>
     <g id="text_4">
      <!-- $\mathdefault{10^{-1}}$ -->
      <g style="fill:#262626;" transform="translate(29.746175 207.461948)scale(0.1 -0.1)">
       <use transform="translate(0 0.99375)" xlink:href="#ArialMT-49"/>
       <use transform="translate(55.615234 0.99375)" xlink:href="#ArialMT-48"/>
       <use transform="translate(112.972813 70.6875)scale(0.7)" xlink:href="#ArialMT-8722"/>
       <use transform="translate(153.851719 70.6875)scale(0.7)" xlink:href="#ArialMT-49"/>
      </g>
     </g>
    </g>
    <g id="ytick_3">
     <g id="line2d_4">
      <path clip-path="url(#pc227d0473c)" d="M 56.546175 120.049442 
L 560.88 120.049442 
" style="fill:none;stroke:#ffffff;stroke-linecap:round;"/>
     </g>
     <g id="text_5">
      <!-- $\mathdefault{10^{0}}$ -->
      <g style="fill:#262626;" transform="translate(33.846175 125.205692)scale(0.1 -0.1)">
       <use transform="translate(0 0.99375)" xlink:href="#ArialMT-49"/>
       <use transform="translate(55.615234 0.99375)" xlink:href="#ArialMT-48"/>
       <use transform="translate(112.972813 70.6875)scale(0.7)" xlink:href="#ArialMT-48"/>
      </g>
     </g>
    </g>
    <g id="ytick_4">
     <g id="line2d_5">
      <path clip-path="url(#pc227d0473c)" d="M 56.546175 37.793187 
L 560.88 37.793187 
" style="fill:none;stroke:#ffffff;stroke-linecap:round;"/>
     </g>
     <g id="text_6">
      <!-- $\mathdefault{10^{1}}$ -->
      <g style="fill:#262626;" transform="translate(33.846175 42.949437)scale(0.1 -0.1)">
       <use transform="translate(0 0.99375)" xlink:href="#ArialMT-49"/>
       <use transform="translate(55.615234 0.99375)" xlink:href="#ArialMT-48"/>
       <use transform="translate(112.972813 70.6875)scale(0.7)" xlink:href="#ArialMT-49"/>
      </g>
     </g>
    </g>
    <g id="ytick_5"/>
    <g id="ytick_6"/>
    <g id="ytick_7"/>
    <g id="ytick_8"/>
    <g id="ytick_9"/>
    <g id="ytick_10"/>
    <g id="ytick_11"/>
    <g id="ytick_12"/>
    <g id="ytick_13"/>
    <g id="ytick_14"/>
    <g id="ytick_15"/>
    <g id="ytick_16"/>
    <g id="ytick_17"/>
    <g id="ytick_18"/>
    <g id="ytick_19"/>
    <g id="ytick_20"/>
    <g id="ytick_21"/>
    <g id="ytick_22"/>
    <g id="ytick_23"/>
    <g id="ytick_24"/>
    <g id="ytick_25"/>
    <g id="ytick_26"/>
    <g id="ytick_27"/>
    <g id="ytick_28"/>
    <g id="ytick_29"/>
    <g id="ytick_30"/>
    <g id="ytick_31"/>
    <g id="ytick_32"/>
    <g id="ytick_33"/>
    <g id="ytick_34"/>
    <g id="ytick_35"/>
    <g id="ytick_36"/>
    <g id="text_7">
     <!-- DPR -->
     <defs>
      <path d="M 7.71875 0 
L 7.71875 71.578125 
L 34.71875 71.578125 
Q 41.84375 71.578125 45.609375 70.90625 
Q 50.875 70.015625 54.4375 67.546875 
Q 58.015625 65.09375 60.1875 60.640625 
Q 62.359375 56.203125 62.359375 50.875 
Q 62.359375 41.75 56.546875 35.421875 
Q 50.734375 29.109375 35.546875 29.109375 
L 17.1875 29.109375 
L 17.1875 0 
z
M 17.1875 37.546875 
L 35.6875 37.546875 
Q 44.875 37.546875 48.734375 40.96875 
Q 52.59375 44.390625 52.59375 50.59375 
Q 52.59375 55.078125 50.3125 58.265625 
Q 48.046875 61.46875 44.34375 62.5 
Q 41.9375 63.140625 35.5 63.140625 
L 17.1875 63.140625 
z
" id="ArialMT-80"/>
      <path d="M 7.859375 0 
L 7.859375 71.578125 
L 39.59375 71.578125 
Q 49.171875 71.578125 54.140625 69.640625 
Q 59.125 67.71875 62.109375 62.828125 
Q 65.09375 57.953125 65.09375 52.046875 
Q 65.09375 44.4375 60.15625 39.203125 
Q 55.21875 33.984375 44.921875 32.5625 
Q 48.6875 30.765625 50.640625 29 
Q 54.78125 25.203125 58.5 19.484375 
L 70.953125 0 
L 59.03125 0 
L 49.5625 14.890625 
Q 45.40625 21.34375 42.71875 24.75 
Q 40.046875 28.171875 37.921875 29.53125 
Q 35.796875 30.90625 33.59375 31.453125 
Q 31.984375 31.78125 28.328125 31.78125 
L 17.328125 31.78125 
L 17.328125 0 
z
M 17.328125 39.984375 
L 37.703125 39.984375 
Q 44.1875 39.984375 47.84375 41.328125 
Q 51.515625 42.671875 53.421875 45.625 
Q 55.328125 48.578125 55.328125 52.046875 
Q 55.328125 57.125 51.640625 60.390625 
Q 47.953125 63.671875 39.984375 63.671875 
L 17.328125 63.671875 
z
" id="ArialMT-82"/>
     </defs>
     <g style="fill:#262626;" transform="translate(23.559925 198.724172)rotate(-90)scale(0.11 -0.11)">
      <use xlink:href="#ArialMT-68"/>
      <use x="72.216797" xlink:href="#ArialMT-80"/>
      <use x="138.916016" xlink:href="#ArialMT-82"/>
     </g>
    </g>
   </g>
   <g id="PathCollection_1">
    <defs>
     <path d="M 0 3.5 
C 0.928211 3.5 1.81853 3.131218 2.474874 2.474874 
C 3.131218 1.81853 3.5 0.928211 3.5 0 
C 3.5 -0.928211 3.131218 -1.81853 2.474874 -2.474874 
C 1.81853 -3.131218 0.928211 -3.5 0 -3.5 
C -0.928211 -3.5 -1.81853 -3.131218 -2.474874 -2.474874 
C -3.131218 -1.81853 -3.5 -0.928211 -3.5 0 
C -3.5 0.928211 -3.131218 1.81853 -2.474874 2.474874 
C -1.81853 3.131218 -0.928211 3.5 0 3.5 
z
" id="m872aa44e6f" style="stroke:#000000;stroke-opacity:0.75;"/>
    </defs>
    <g clip-path="url(#pc227d0473c)">
     <use style="fill:#4c72b0;fill-opacity:0.75;stroke:#000000;stroke-opacity:0.75;" x="237.429849" xlink:href="#m872aa44e6f" y="170.01052"/>
     <use style="fill:#4c72b0;fill-opacity:0.75;stroke:#000000;stroke-opacity:0.75;" x="300.553877" xlink:href="#m872aa44e6f" y="175.057858"/>
     <use style="fill:#4c72b0;fill-opacity:0.75;stroke:#000000;stroke-opacity:0.75;" x="515.934255" xlink:href="#m872aa44e6f" y="155.468184"/>
     <use style="fill:#4c72b0;fill-opacity:0.75;stroke:#000000;stroke-opacity:0.75;" x="347.501339" xlink:href="#m872aa44e6f" y="166.937407"/>
     <use style="fill:#4c72b0;fill-opacity:0.75;stroke:#000000;stroke-opacity:0.75;" x="179.582978" xlink:href="#m872aa44e6f" y="211.65349"/>
     <use style="fill:#4c72b0;fill-opacity:0.75;stroke:#000000;stroke-opacity:0.75;" x="280.883548" xlink:href="#m872aa44e6f" y="129.71832"/>
     <use style="fill:#4c72b0;fill-opacity:0.75;stroke:#000000;stroke-opacity:0.75;" x="451.722412" xlink:href="#m872aa44e6f" y="126.870198"/>
     <use style="fill:#4c72b0;fill-opacity:0.75;stroke:#000000;stroke-opacity:0.75;" x="318.141126" xlink:href="#m872aa44e6f" y="151.845656"/>
     <use style="fill:#4c72b0;fill-opacity:0.75;stroke:#000000;stroke-opacity:0.75;" x="470.022938" xlink:href="#m872aa44e6f" y="189.533952"/>
     <use style="fill:#4c72b0;fill-opacity:0.75;stroke:#000000;stroke-opacity:0.75;" x="167.634124" xlink:href="#m872aa44e6f" y="149.434648"/>
     <use style="fill:#4c72b0;fill-opacity:0.75;stroke:#000000;stroke-opacity:0.75;" x="426.692017" xlink:href="#m872aa44e6f" y="152.616943"/>
     <use style="fill:#4c72b0;fill-opacity:0.75;stroke:#000000;stroke-opacity:0.75;" x="189.693057" xlink:href="#m872aa44e6f" y="175.662538"/>
     <use style="fill:#4c72b0;fill-opacity:0.75;stroke:#000000;stroke-opacity:0.75;" x="259.741148" xlink:href="#m872aa44e6f" y="177.262214"/>
     <use style="fill:#4c72b0;fill-opacity:0.75;stroke:#000000;stroke-opacity:0.75;" x="378.081015" xlink:href="#m872aa44e6f" y="207.264273"/>
     <use style="fill:#4c72b0;fill-opacity:0.75;stroke:#000000;stroke-opacity:0.75;" x="212.454852" xlink:href="#m872aa44e6f" y="186.488749"/>
     <use style="fill:#4c72b0;fill-opacity:0.75;stroke:#000000;stroke-opacity:0.75;" x="411.033634" xlink:href="#m872aa44e6f" y="154.315841"/>
     <use style="fill:#4c72b0;fill-opacity:0.75;stroke:#000000;stroke-opacity:0.75;" x="385.385012" xlink:href="#m872aa44e6f" y="140.765038"/>
     <use style="fill:#4c72b0;fill-opacity:0.75;stroke:#000000;stroke-opacity:0.75;" x="342.315461" xlink:href="#m872aa44e6f" y="200.228168"/>
     <use style="fill:#4c72b0;fill-opacity:0.75;stroke:#000000;stroke-opacity:0.75;" x="414.554067" xlink:href="#m872aa44e6f" y="164.213613"/>
     <use style="fill:#4c72b0;fill-opacity:0.75;stroke:#000000;stroke-opacity:0.75;" x="100.703786" xlink:href="#m872aa44e6f" y="122.180211"/>
     <use style="fill:#4c72b0;fill-opacity:0.75;stroke:#000000;stroke-opacity:0.75;" x="306.57237" xlink:href="#m872aa44e6f" y="176.785379"/>
     <use style="fill:#4c72b0;fill-opacity:0.75;stroke:#000000;stroke-opacity:0.75;" x="190.962248" xlink:href="#m872aa44e6f" y="189.040483"/>
     <use style="fill:#4c72b0;fill-opacity:0.75;stroke:#000000;stroke-opacity:0.75;" x="353.847171" xlink:href="#m872aa44e6f" y="176.859138"/>
     <use style="fill:#4c72b0;fill-opacity:0.75;stroke:#000000;stroke-opacity:0.75;" x="214.253515" xlink:href="#m872aa44e6f" y="252.554741"/>
     <use style="fill:#4c72b0;fill-opacity:0.75;stroke:#000000;stroke-opacity:0.75;" x="348.305596" xlink:href="#m872aa44e6f" y="160.416897"/>
     <use style="fill:#4c72b0;fill-opacity:0.75;stroke:#000000;stroke-opacity:0.75;" x="347.821156" xlink:href="#m872aa44e6f" y="138.798957"/>
     <use style="fill:#4c72b0;fill-opacity:0.75;stroke:#000000;stroke-opacity:0.75;" x="452.555071" xlink:href="#m872aa44e6f" y="141.606358"/>
     <use style="fill:#4c72b0;fill-opacity:0.75;stroke:#000000;stroke-opacity:0.75;" x="301.908004" xlink:href="#m872aa44e6f" y="130.179514"/>
     <use style="fill:#4c72b0;fill-opacity:0.75;stroke:#000000;stroke-opacity:0.75;" x="252.365492" xlink:href="#m872aa44e6f" y="155.985897"/>
     <use style="fill:#4c72b0;fill-opacity:0.75;stroke:#000000;stroke-opacity:0.75;" x="334.832361" xlink:href="#m872aa44e6f" y="149.755582"/>
     <use style="fill:#4c72b0;fill-opacity:0.75;stroke:#000000;stroke-opacity:0.75;" x="438.39108" xlink:href="#m872aa44e6f" y="279.048822"/>
     <use style="fill:#4c72b0;fill-opacity:0.75;stroke:#000000;stroke-opacity:0.75;" x="80.90406" xlink:href="#m872aa44e6f" y="120.741629"/>
     <use style="fill:#4c72b0;fill-opacity:0.75;stroke:#000000;stroke-opacity:0.75;" x="377.251423" xlink:href="#m872aa44e6f" y="143.052608"/>
     <use style="fill:#4c72b0;fill-opacity:0.75;stroke:#000000;stroke-opacity:0.75;" x="213.44181" xlink:href="#m872aa44e6f" y="179.805881"/>
     <use style="fill:#4c72b0;fill-opacity:0.75;stroke:#000000;stroke-opacity:0.75;" x="260.281921" xlink:href="#m872aa44e6f" y="144.208689"/>
     <use style="fill:#4c72b0;fill-opacity:0.75;stroke:#000000;stroke-opacity:0.75;" x="311.571425" xlink:href="#m872aa44e6f" y="155.304163"/>
     <use style="fill:#4c72b0;fill-opacity:0.75;stroke:#000000;stroke-opacity:0.75;" x="537.855666" xlink:href="#m872aa44e6f" y="143.373747"/>
     <use style="fill:#4c72b0;fill-opacity:0.75;stroke:#000000;stroke-opacity:0.75;" x="335.478503" xlink:href="#m872aa44e6f" y="130.211714"/>
     <use style="fill:#4c72b0;fill-opacity:0.75;stroke:#000000;stroke-opacity:0.75;" x="115.773295" xlink:href="#m872aa44e6f" y="129.090285"/>
     <use style="fill:#4c72b0;fill-opacity:0.75;stroke:#000000;stroke-opacity:0.75;" x="280.674521" xlink:href="#m872aa44e6f" y="135.144725"/>
     <use style="fill:#4c72b0;fill-opacity:0.75;stroke:#000000;stroke-opacity:0.75;" x="452.972682" xlink:href="#m872aa44e6f" y="119.922826"/>
     <use style="fill:#4c72b0;fill-opacity:0.75;stroke:#000000;stroke-opacity:0.75;" x="319.670482" xlink:href="#m872aa44e6f" y="141.394263"/>
     <use style="fill:#4c72b0;fill-opacity:0.75;stroke:#000000;stroke-opacity:0.75;" x="489.023101" xlink:href="#m872aa44e6f" y="224.474665"/>
     <use style="fill:#4c72b0;fill-opacity:0.75;stroke:#000000;stroke-opacity:0.75;" x="165.83466" xlink:href="#m872aa44e6f" y="146.769758"/>
     <use style="fill:#4c72b0;fill-opacity:0.75;stroke:#000000;stroke-opacity:0.75;" x="392.224887" xlink:href="#m872aa44e6f" y="97.873038"/>
     <use style="fill:#4c72b0;fill-opacity:0.75;stroke:#000000;stroke-opacity:0.75;" x="177.282501" xlink:href="#m872aa44e6f" y="182.066007"/>
     <use style="fill:#4c72b0;fill-opacity:0.75;stroke:#000000;stroke-opacity:0.75;" x="241.98264" xlink:href="#m872aa44e6f" y="184.384867"/>
     <use style="fill:#4c72b0;fill-opacity:0.75;stroke:#000000;stroke-opacity:0.75;" x="284.094311" xlink:href="#m872aa44e6f" y="196.994337"/>
     <use style="fill:#4c72b0;fill-opacity:0.75;stroke:#000000;stroke-opacity:0.75;" x="207.325793" xlink:href="#m872aa44e6f" y="282.309497"/>
     <use style="fill:#4c72b0;fill-opacity:0.75;stroke:#000000;stroke-opacity:0.75;" x="426.09719" xlink:href="#m872aa44e6f" y="150.290057"/>
     <use style="fill:#4c72b0;fill-opacity:0.75;stroke:#000000;stroke-opacity:0.75;" x="370.911476" xlink:href="#m872aa44e6f" y="44.149328"/>
     <use style="fill:#4c72b0;fill-opacity:0.75;stroke:#000000;stroke-opacity:0.75;" x="417.194996" xlink:href="#m872aa44e6f" y="208.80447"/>
     <use style="fill:#4c72b0;fill-opacity:0.75;stroke:#000000;stroke-opacity:0.75;" x="360.601909" xlink:href="#m872aa44e6f" y="128.68121"/>
     <use style="fill:#4c72b0;fill-opacity:0.75;stroke:#000000;stroke-opacity:0.75;" x="134.204239" xlink:href="#m872aa44e6f" y="127.455047"/>
     <use style="fill:#4c72b0;fill-opacity:0.75;stroke:#000000;stroke-opacity:0.75;" x="316.651997" xlink:href="#m872aa44e6f" y="162.308448"/>
     <use style="fill:#4c72b0;fill-opacity:0.75;stroke:#000000;stroke-opacity:0.75;" x="196.819994" xlink:href="#m872aa44e6f" y="192.001622"/>
     <use style="fill:#4c72b0;fill-opacity:0.75;stroke:#000000;stroke-opacity:0.75;" x="307.211957" xlink:href="#m872aa44e6f" y="140.871849"/>
     <use style="fill:#4c72b0;fill-opacity:0.75;stroke:#000000;stroke-opacity:0.75;" x="207.283403" xlink:href="#m872aa44e6f" y="175.131755"/>
     <use style="fill:#4c72b0;fill-opacity:0.75;stroke:#000000;stroke-opacity:0.75;" x="256.325188" xlink:href="#m872aa44e6f" y="146.21192"/>
     <use style="fill:#4c72b0;fill-opacity:0.75;stroke:#000000;stroke-opacity:0.75;" x="393.891123" xlink:href="#m872aa44e6f" y="140.793836"/>
     <use style="fill:#4c72b0;fill-opacity:0.75;stroke:#000000;stroke-opacity:0.75;" x="440.842305" xlink:href="#m872aa44e6f" y="143.221281"/>
     <use style="fill:#4c72b0;fill-opacity:0.75;stroke:#000000;stroke-opacity:0.75;" x="309.997899" xlink:href="#m872aa44e6f" y="161.786231"/>
     <use style="fill:#4c72b0;fill-opacity:0.75;stroke:#000000;stroke-opacity:0.75;" x="279.520877" xlink:href="#m872aa44e6f" y="167.483579"/>
     <use style="fill:#4c72b0;fill-opacity:0.75;stroke:#000000;stroke-opacity:0.75;" x="326.138817" xlink:href="#m872aa44e6f" y="145.698509"/>
     <use style="fill:#4c72b0;fill-opacity:0.75;stroke:#000000;stroke-opacity:0.75;" x="413.544487" xlink:href="#m872aa44e6f" y="214.362586"/>
     <use style="fill:#4c72b0;fill-opacity:0.75;stroke:#000000;stroke-opacity:0.75;" x="88.691595" xlink:href="#m872aa44e6f" y="123.27266"/>
     <use style="fill:#4c72b0;fill-opacity:0.75;stroke:#000000;stroke-opacity:0.75;" x="455.675341" xlink:href="#m872aa44e6f" y="101.86549"/>
     <use style="fill:#4c72b0;fill-opacity:0.75;stroke:#000000;stroke-opacity:0.75;" x="172.550008" xlink:href="#m872aa44e6f" y="170.813769"/>
     <use style="fill:#4c72b0;fill-opacity:0.75;stroke:#000000;stroke-opacity:0.75;" x="234.392177" xlink:href="#m872aa44e6f" y="156.969438"/>
     <use style="fill:#4c72b0;fill-opacity:0.75;stroke:#000000;stroke-opacity:0.75;" x="354.799943" xlink:href="#m872aa44e6f" y="177.605456"/>
     <use style="fill:#4c72b0;fill-opacity:0.75;stroke:#000000;stroke-opacity:0.75;" x="506.509299" xlink:href="#m872aa44e6f" y="138.460355"/>
     <use style="fill:#4c72b0;fill-opacity:0.75;stroke:#000000;stroke-opacity:0.75;" x="349.540043" xlink:href="#m872aa44e6f" y="139.063958"/>
     <use style="fill:#4c72b0;fill-opacity:0.75;stroke:#000000;stroke-opacity:0.75;" x="194.508318" xlink:href="#m872aa44e6f" y="164.712695"/>
     <use style="fill:#4c72b0;fill-opacity:0.75;stroke:#000000;stroke-opacity:0.75;" x="291.228263" xlink:href="#m872aa44e6f" y="136.582382"/>
     <use style="fill:#4c72b0;fill-opacity:0.75;stroke:#000000;stroke-opacity:0.75;" x="418.000202" xlink:href="#m872aa44e6f" y="123.193691"/>
     <use style="fill:#4c72b0;fill-opacity:0.75;stroke:#000000;stroke-opacity:0.75;" x="282.107379" xlink:href="#m872aa44e6f" y="143.644214"/>
     <use style="fill:#4c72b0;fill-opacity:0.75;stroke:#000000;stroke-opacity:0.75;" x="468.258227" xlink:href="#m872aa44e6f" y="201.012797"/>
     <use style="fill:#4c72b0;fill-opacity:0.75;stroke:#000000;stroke-opacity:0.75;" x="171.090963" xlink:href="#m872aa44e6f" y="151.220727"/>
     <use style="fill:#4c72b0;fill-opacity:0.75;stroke:#000000;stroke-opacity:0.75;" x="363.715384" xlink:href="#m872aa44e6f" y="93.986721"/>
     <use style="fill:#4c72b0;fill-opacity:0.75;stroke:#000000;stroke-opacity:0.75;" x="183.334025" xlink:href="#m872aa44e6f" y="164.061529"/>
     <use style="fill:#4c72b0;fill-opacity:0.75;stroke:#000000;stroke-opacity:0.75;" x="227.741849" xlink:href="#m872aa44e6f" y="193.923653"/>
     <use style="fill:#4c72b0;fill-opacity:0.75;stroke:#000000;stroke-opacity:0.75;" x="322.18001" xlink:href="#m872aa44e6f" y="198.762464"/>
     <use style="fill:#4c72b0;fill-opacity:0.75;stroke:#000000;stroke-opacity:0.75;" x="212.719913" xlink:href="#m872aa44e6f" y="168.857969"/>
     <use style="fill:#4c72b0;fill-opacity:0.75;stroke:#000000;stroke-opacity:0.75;" x="431.660811" xlink:href="#m872aa44e6f" y="147.295082"/>
     <use style="fill:#4c72b0;fill-opacity:0.75;stroke:#000000;stroke-opacity:0.75;" x="383.207272" xlink:href="#m872aa44e6f" y="168.062488"/>
     <use style="fill:#4c72b0;fill-opacity:0.75;stroke:#000000;stroke-opacity:0.75;" x="453.648953" xlink:href="#m872aa44e6f" y="171.602582"/>
     <use style="fill:#4c72b0;fill-opacity:0.75;stroke:#000000;stroke-opacity:0.75;" x="221.500972" xlink:href="#m872aa44e6f" y="117.316249"/>
     <use style="fill:#4c72b0;fill-opacity:0.75;stroke:#000000;stroke-opacity:0.75;" x="124.045571" xlink:href="#m872aa44e6f" y="123.283303"/>
     <use style="fill:#4c72b0;fill-opacity:0.75;stroke:#000000;stroke-opacity:0.75;" x="334.991604" xlink:href="#m872aa44e6f" y="158.417732"/>
     <use style="fill:#4c72b0;fill-opacity:0.75;stroke:#000000;stroke-opacity:0.75;" x="201.083586" xlink:href="#m872aa44e6f" y="197.276219"/>
     <use style="fill:#4c72b0;fill-opacity:0.75;stroke:#000000;stroke-opacity:0.75;" x="385.99221" xlink:href="#m872aa44e6f" y="167.604425"/>
     <use style="fill:#4c72b0;fill-opacity:0.75;stroke:#000000;stroke-opacity:0.75;" x="201.941604" xlink:href="#m872aa44e6f" y="195.549407"/>
     <use style="fill:#4c72b0;fill-opacity:0.75;stroke:#000000;stroke-opacity:0.75;" x="297.487864" xlink:href="#m872aa44e6f" y="144.928993"/>
     <use style="fill:#4c72b0;fill-opacity:0.75;stroke:#000000;stroke-opacity:0.75;" x="403.029735" xlink:href="#m872aa44e6f" y="144.423067"/>
     <use style="fill:#4c72b0;fill-opacity:0.75;stroke:#000000;stroke-opacity:0.75;" x="468.156647" xlink:href="#m872aa44e6f" y="151.125751"/>
     <use style="fill:#4c72b0;fill-opacity:0.75;stroke:#000000;stroke-opacity:0.75;" x="353.337912" xlink:href="#m872aa44e6f" y="151.149759"/>
     <use style="fill:#4c72b0;fill-opacity:0.75;stroke:#000000;stroke-opacity:0.75;" x="249.010454" xlink:href="#m872aa44e6f" y="167.618302"/>
     <use style="fill:#4c72b0;fill-opacity:0.75;stroke:#000000;stroke-opacity:0.75;" x="325.783456" xlink:href="#m872aa44e6f" y="156.703728"/>
     <use style="fill:#4c72b0;fill-opacity:0.75;stroke:#000000;stroke-opacity:0.75;" x="421.801345" xlink:href="#m872aa44e6f" y="173.090616"/>
     <use style="fill:#4c72b0;fill-opacity:0.75;stroke:#000000;stroke-opacity:0.75;" x="117.127389" xlink:href="#m872aa44e6f" y="130.906814"/>
     <use style="fill:#4c72b0;fill-opacity:0.75;stroke:#000000;stroke-opacity:0.75;" x="472.852021" xlink:href="#m872aa44e6f" y="113.515576"/>
     <use style="fill:#4c72b0;fill-opacity:0.75;stroke:#000000;stroke-opacity:0.75;" x="186.405173" xlink:href="#m872aa44e6f" y="176.417627"/>
    </g>
   </g>
   <g id="patch_3">
    <path d="M 56.546175 344.406625 
L 56.546175 29.81625 
" style="fill:none;"/>
   </g>
   <g id="patch_4">
    <path d="M 560.88 344.406625 
L 560.88 29.81625 
" style="fill:none;"/>
   </g>
   <g id="patch_5">
    <path d="M 56.546175 344.406625 
L 560.88 344.406625 
" style="fill:none;"/>
   </g>
   <g id="patch_6">
    <path d="M 56.546175 29.81625 
L 560.88 29.81625 
" style="fill:none;"/>
   </g>
   <g id="text_8">
    <!-- Scatterplot for log data -->
    <defs>
     <path d="M 4.5 23 
L 13.421875 23.78125 
Q 14.0625 18.40625 16.375 14.96875 
Q 18.703125 11.53125 23.578125 9.40625 
Q 28.46875 7.28125 34.578125 7.28125 
Q 39.984375 7.28125 44.140625 8.890625 
Q 48.296875 10.5 50.3125 13.296875 
Q 52.34375 16.109375 52.34375 19.4375 
Q 52.34375 22.796875 50.390625 25.3125 
Q 48.4375 27.828125 43.953125 29.546875 
Q 41.0625 30.671875 31.203125 33.03125 
Q 21.34375 35.40625 17.390625 37.5 
Q 12.25 40.1875 9.734375 44.15625 
Q 7.234375 48.140625 7.234375 53.078125 
Q 7.234375 58.5 10.296875 63.203125 
Q 13.375 67.921875 19.28125 70.359375 
Q 25.203125 72.796875 32.421875 72.796875 
Q 40.375 72.796875 46.453125 70.234375 
Q 52.546875 67.671875 55.8125 62.6875 
Q 59.078125 57.71875 59.328125 51.421875 
L 50.25 50.734375 
Q 49.515625 57.515625 45.28125 60.984375 
Q 41.0625 64.453125 32.8125 64.453125 
Q 24.21875 64.453125 20.28125 61.296875 
Q 16.359375 58.15625 16.359375 53.71875 
Q 16.359375 49.859375 19.140625 47.359375 
Q 21.875 44.875 33.421875 42.265625 
Q 44.96875 39.65625 49.265625 37.703125 
Q 55.515625 34.8125 58.484375 30.390625 
Q 61.46875 25.984375 61.46875 20.21875 
Q 61.46875 14.5 58.203125 9.4375 
Q 54.9375 4.390625 48.796875 1.578125 
Q 42.671875 -1.21875 35.015625 -1.21875 
Q 25.296875 -1.21875 18.71875 1.609375 
Q 12.15625 4.4375 8.421875 10.125 
Q 4.6875 15.828125 4.5 23 
z
" id="ArialMT-83"/>
     <path d="M 40.4375 19 
L 49.078125 17.875 
Q 47.65625 8.9375 41.8125 3.875 
Q 35.984375 -1.171875 27.484375 -1.171875 
Q 16.84375 -1.171875 10.375 5.78125 
Q 3.90625 12.75 3.90625 25.734375 
Q 3.90625 34.125 6.6875 40.421875 
Q 9.46875 46.734375 15.15625 49.875 
Q 20.84375 53.03125 27.546875 53.03125 
Q 35.984375 53.03125 41.359375 48.75 
Q 46.734375 44.484375 48.25 36.625 
L 39.703125 35.296875 
Q 38.484375 40.53125 35.375 43.15625 
Q 32.28125 45.796875 27.875 45.796875 
Q 21.234375 45.796875 17.078125 41.03125 
Q 12.9375 36.28125 12.9375 25.984375 
Q 12.9375 15.53125 16.9375 10.796875 
Q 20.953125 6.0625 27.390625 6.0625 
Q 32.5625 6.0625 36.03125 9.234375 
Q 39.5 12.40625 40.4375 19 
z
" id="ArialMT-99"/>
     <path d="M 40.4375 6.390625 
Q 35.546875 2.25 31.03125 0.53125 
Q 26.515625 -1.171875 21.34375 -1.171875 
Q 12.796875 -1.171875 8.203125 3 
Q 3.609375 7.171875 3.609375 13.671875 
Q 3.609375 17.484375 5.34375 20.625 
Q 7.078125 23.78125 9.890625 25.6875 
Q 12.703125 27.59375 16.21875 28.5625 
Q 18.796875 29.25 24.03125 29.890625 
Q 34.671875 31.15625 39.703125 32.90625 
Q 39.75 34.71875 39.75 35.203125 
Q 39.75 40.578125 37.25 42.78125 
Q 33.890625 45.75 27.25 45.75 
Q 21.046875 45.75 18.09375 43.578125 
Q 15.140625 41.40625 13.71875 35.890625 
L 5.125 37.0625 
Q 6.296875 42.578125 8.984375 45.96875 
Q 11.671875 49.359375 16.75 51.1875 
Q 21.828125 53.03125 28.515625 53.03125 
Q 35.15625 53.03125 39.296875 51.46875 
Q 43.453125 49.90625 45.40625 47.53125 
Q 47.359375 45.171875 48.140625 41.546875 
Q 48.578125 39.3125 48.578125 33.453125 
L 48.578125 21.734375 
Q 48.578125 9.46875 49.140625 6.21875 
Q 49.703125 2.984375 51.375 0 
L 42.1875 0 
Q 40.828125 2.734375 40.4375 6.390625 
z
M 39.703125 26.03125 
Q 34.90625 24.078125 25.34375 22.703125 
Q 19.921875 21.921875 17.671875 20.9375 
Q 15.4375 19.96875 14.203125 18.09375 
Q 12.984375 16.21875 12.984375 13.921875 
Q 12.984375 10.40625 15.640625 8.0625 
Q 18.3125 5.71875 23.4375 5.71875 
Q 28.515625 5.71875 32.46875 7.9375 
Q 36.421875 10.15625 38.28125 14.015625 
Q 39.703125 17 39.703125 22.796875 
z
" id="ArialMT-97"/>
     <path d="M 25.78125 7.859375 
L 27.046875 0.09375 
Q 23.34375 -0.6875 20.40625 -0.6875 
Q 15.625 -0.6875 12.984375 0.828125 
Q 10.359375 2.34375 9.28125 4.8125 
Q 8.203125 7.28125 8.203125 15.1875 
L 8.203125 45.015625 
L 1.765625 45.015625 
L 1.765625 51.859375 
L 8.203125 51.859375 
L 8.203125 64.703125 
L 16.9375 69.96875 
L 16.9375 51.859375 
L 25.78125 51.859375 
L 25.78125 45.015625 
L 16.9375 45.015625 
L 16.9375 14.703125 
Q 16.9375 10.9375 17.40625 9.859375 
Q 17.875 8.796875 18.921875 8.15625 
Q 19.96875 7.515625 21.921875 7.515625 
Q 23.390625 7.515625 25.78125 7.859375 
z
" id="ArialMT-116"/>
     <path d="M 42.09375 16.703125 
L 51.171875 15.578125 
Q 49.03125 7.625 43.21875 3.21875 
Q 37.40625 -1.171875 28.375 -1.171875 
Q 17 -1.171875 10.328125 5.828125 
Q 3.65625 12.84375 3.65625 25.484375 
Q 3.65625 38.578125 10.390625 45.796875 
Q 17.140625 53.03125 27.875 53.03125 
Q 38.28125 53.03125 44.875 45.953125 
Q 51.46875 38.875 51.46875 26.03125 
Q 51.46875 25.25 51.421875 23.6875 
L 12.75 23.6875 
Q 13.234375 15.140625 17.578125 10.59375 
Q 21.921875 6.0625 28.421875 6.0625 
Q 33.25 6.0625 36.671875 8.59375 
Q 40.09375 11.140625 42.09375 16.703125 
z
M 13.234375 30.90625 
L 42.1875 30.90625 
Q 41.609375 37.453125 38.875 40.71875 
Q 34.671875 45.796875 27.984375 45.796875 
Q 21.921875 45.796875 17.796875 41.75 
Q 13.671875 37.703125 13.234375 30.90625 
z
" id="ArialMT-101"/>
     <path d="M 6.5 0 
L 6.5 51.859375 
L 14.40625 51.859375 
L 14.40625 44 
Q 17.4375 49.515625 20 51.265625 
Q 22.5625 53.03125 25.640625 53.03125 
Q 30.078125 53.03125 34.671875 50.203125 
L 31.640625 42.046875 
Q 28.421875 43.953125 25.203125 43.953125 
Q 22.3125 43.953125 20.015625 42.21875 
Q 17.71875 40.484375 16.75 37.40625 
Q 15.28125 32.71875 15.28125 27.15625 
L 15.28125 0 
z
" id="ArialMT-114"/>
     <path d="M 6.59375 -19.875 
L 6.59375 51.859375 
L 14.59375 51.859375 
L 14.59375 45.125 
Q 17.4375 49.078125 21 51.046875 
Q 24.5625 53.03125 29.640625 53.03125 
Q 36.28125 53.03125 41.359375 49.609375 
Q 46.4375 46.1875 49.015625 39.953125 
Q 51.609375 33.734375 51.609375 26.3125 
Q 51.609375 18.359375 48.75 11.984375 
Q 45.90625 5.609375 40.453125 2.21875 
Q 35.015625 -1.171875 29 -1.171875 
Q 24.609375 -1.171875 21.109375 0.6875 
Q 17.625 2.546875 15.375 5.375 
L 15.375 -19.875 
z
M 14.546875 25.640625 
Q 14.546875 15.625 18.59375 10.84375 
Q 22.65625 6.0625 28.421875 6.0625 
Q 34.28125 6.0625 38.453125 11.015625 
Q 42.625 15.96875 42.625 26.375 
Q 42.625 36.28125 38.546875 41.203125 
Q 34.46875 46.140625 28.8125 46.140625 
Q 23.1875 46.140625 18.859375 40.890625 
Q 14.546875 35.640625 14.546875 25.640625 
z
" id="ArialMT-112"/>
     <path d="M 6.390625 0 
L 6.390625 71.578125 
L 15.1875 71.578125 
L 15.1875 0 
z
" id="ArialMT-108"/>
     <path d="M 3.328125 25.921875 
Q 3.328125 40.328125 11.328125 47.265625 
Q 18.015625 53.03125 27.640625 53.03125 
Q 38.328125 53.03125 45.109375 46.015625 
Q 51.90625 39.015625 51.90625 26.65625 
Q 51.90625 16.65625 48.90625 10.90625 
Q 45.90625 5.171875 40.15625 2 
Q 34.421875 -1.171875 27.640625 -1.171875 
Q 16.75 -1.171875 10.03125 5.8125 
Q 3.328125 12.796875 3.328125 25.921875 
z
M 12.359375 25.921875 
Q 12.359375 15.96875 16.703125 11.015625 
Q 21.046875 6.0625 27.640625 6.0625 
Q 34.1875 6.0625 38.53125 11.03125 
Q 42.875 16.015625 42.875 26.21875 
Q 42.875 35.84375 38.5 40.796875 
Q 34.125 45.75 27.640625 45.75 
Q 21.046875 45.75 16.703125 40.8125 
Q 12.359375 35.890625 12.359375 25.921875 
z
" id="ArialMT-111"/>
     <path id="ArialMT-32"/>
     <path d="M 8.6875 0 
L 8.6875 45.015625 
L 0.921875 45.015625 
L 0.921875 51.859375 
L 8.6875 51.859375 
L 8.6875 57.375 
Q 8.6875 62.59375 9.625 65.140625 
Q 10.890625 68.5625 14.078125 70.671875 
Q 17.28125 72.796875 23.046875 72.796875 
Q 26.765625 72.796875 31.25 71.921875 
L 29.9375 64.265625 
Q 27.203125 64.75 24.75 64.75 
Q 20.75 64.75 19.09375 63.03125 
Q 17.4375 61.328125 17.4375 56.640625 
L 17.4375 51.859375 
L 27.546875 51.859375 
L 27.546875 45.015625 
L 17.4375 45.015625 
L 17.4375 0 
z
" id="ArialMT-102"/>
     <path d="M 4.984375 -4.296875 
L 13.53125 -5.5625 
Q 14.0625 -9.515625 16.5 -11.328125 
Q 19.78125 -13.765625 25.4375 -13.765625 
Q 31.546875 -13.765625 34.859375 -11.328125 
Q 38.1875 -8.890625 39.359375 -4.5 
Q 40.046875 -1.8125 39.984375 6.78125 
Q 34.234375 0 25.640625 0 
Q 14.9375 0 9.078125 7.71875 
Q 3.21875 15.4375 3.21875 26.21875 
Q 3.21875 33.640625 5.90625 39.90625 
Q 8.59375 46.1875 13.6875 49.609375 
Q 18.796875 53.03125 25.6875 53.03125 
Q 34.859375 53.03125 40.828125 45.609375 
L 40.828125 51.859375 
L 48.921875 51.859375 
L 48.921875 7.03125 
Q 48.921875 -5.078125 46.453125 -10.125 
Q 44 -15.1875 38.640625 -18.109375 
Q 33.296875 -21.046875 25.484375 -21.046875 
Q 16.21875 -21.046875 10.5 -16.875 
Q 4.78125 -12.703125 4.984375 -4.296875 
z
M 12.25 26.859375 
Q 12.25 16.65625 16.296875 11.96875 
Q 20.359375 7.28125 26.46875 7.28125 
Q 32.515625 7.28125 36.609375 11.9375 
Q 40.71875 16.609375 40.71875 26.5625 
Q 40.71875 36.078125 36.5 40.90625 
Q 32.28125 45.75 26.3125 45.75 
Q 20.453125 45.75 16.34375 40.984375 
Q 12.25 36.234375 12.25 26.859375 
z
" id="ArialMT-103"/>
     <path d="M 40.234375 0 
L 40.234375 6.546875 
Q 35.296875 -1.171875 25.734375 -1.171875 
Q 19.53125 -1.171875 14.328125 2.25 
Q 9.125 5.671875 6.265625 11.796875 
Q 3.421875 17.921875 3.421875 25.875 
Q 3.421875 33.640625 6 39.96875 
Q 8.59375 46.296875 13.765625 49.65625 
Q 18.953125 53.03125 25.34375 53.03125 
Q 30.03125 53.03125 33.6875 51.046875 
Q 37.359375 49.078125 39.65625 45.90625 
L 39.65625 71.578125 
L 48.390625 71.578125 
L 48.390625 0 
z
M 12.453125 25.875 
Q 12.453125 15.921875 16.640625 10.984375 
Q 20.84375 6.0625 26.5625 6.0625 
Q 32.328125 6.0625 36.34375 10.765625 
Q 40.375 15.484375 40.375 25.140625 
Q 40.375 35.796875 36.265625 40.765625 
Q 32.171875 45.75 26.171875 45.75 
Q 20.3125 45.75 16.375 40.96875 
Q 12.453125 36.1875 12.453125 25.875 
z
" id="ArialMT-100"/>
    </defs>
    <g style="fill:#262626;" transform="translate(248.3484 23.81625)scale(0.12 -0.12)">
     <use xlink:href="#ArialMT-83"/>
     <use x="66.699219" xlink:href="#ArialMT-99"/>
     <use x="116.699219" xlink:href="#ArialMT-97"/>
     <use x="172.314453" xlink:href="#ArialMT-116"/>
     <use x="200.097656" xlink:href="#ArialMT-116"/>
     <use x="227.880859" xlink:href="#ArialMT-101"/>
     <use x="283.496094" xlink:href="#ArialMT-114"/>
     <use x="316.796875" xlink:href="#ArialMT-112"/>
     <use x="372.412109" xlink:href="#ArialMT-108"/>
     <use x="394.628906" xlink:href="#ArialMT-111"/>
     <use x="450.244141" xlink:href="#ArialMT-116"/>
     <use x="478.027344" xlink:href="#ArialMT-32"/>
     <use x="505.810547" xlink:href="#ArialMT-102"/>
     <use x="533.59375" xlink:href="#ArialMT-111"/>
     <use x="589.208984" xlink:href="#ArialMT-114"/>
     <use x="622.509766" xlink:href="#ArialMT-32"/>
     <use x="650.292969" xlink:href="#ArialMT-108"/>
     <use x="672.509766" xlink:href="#ArialMT-111"/>
     <use x="728.125" xlink:href="#ArialMT-103"/>
     <use x="783.740234" xlink:href="#ArialMT-32"/>
     <use x="811.523438" xlink:href="#ArialMT-100"/>
     <use x="867.138672" xlink:href="#ArialMT-97"/>
     <use x="922.753906" xlink:href="#ArialMT-116"/>
     <use x="950.537109" xlink:href="#ArialMT-97"/>
    </g>
   </g>
  </g>
 </g>
 <defs>
  <clipPath id="pc227d0473c">
   <rect height="314.590375" width="504.333825" x="56.546175" y="29.81625"/>
  </clipPath>
 </defs>
</svg>
