<?xml version="1.0" encoding="utf-8" standalone="no"?>
<!DOCTYPE svg PUBLIC "-//W3C//DTD SVG 1.1//EN"
  "http://www.w3.org/Graphics/SVG/1.1/DTD/svg11.dtd">
<!-- Created with matplotlib (https://matplotlib.org/) -->
<svg height="396pt" version="1.1" viewBox="0 0 576 396" width="576pt" xmlns="http://www.w3.org/2000/svg" xmlns:xlink="http://www.w3.org/1999/xlink">
 <defs>
  <style type="text/css">
*{stroke-linecap:butt;stroke-linejoin:round;}
  </style>
 </defs>
 <g id="figure_1">
  <g id="patch_1">
   <path d="M 0 396 
L 576 396 
L 576 0 
L 0 0 
z
" style="fill:#f0f0f0;"/>
  </g>
  <g id="axes_1">
   <g id="patch_2">
    <path d="M 56.546175 344.406625 
L 560.88 344.406625 
L 560.88 29.81625 
L 56.546175 29.81625 
z
" style="fill:#eaeaf2;"/>
   </g>
   <g id="matplotlib.axis_1">
    <g id="xtick_1">
     <g id="line2d_1">
      <path clip-path="url(#p7bf27b4614)" d="M 112.086686 344.406625 
L 112.086686 29.81625 
" style="fill:none;stroke:#ffffff;stroke-linecap:round;"/>
     </g>
     <g id="text_1">
      <!-- $\mathdefault{10^{-3}}$ -->
      <defs>
       <path d="M 37.25 0 
L 28.46875 0 
L 28.46875 56 
Q 25.296875 52.984375 20.140625 49.953125 
Q 14.984375 46.921875 10.890625 45.40625 
L 10.890625 53.90625 
Q 18.265625 57.375 23.78125 62.296875 
Q 29.296875 67.234375 31.59375 71.875 
L 37.25 71.875 
z
" id="ArialMT-49"/>
       <path d="M 4.15625 35.296875 
Q 4.15625 48 6.765625 55.734375 
Q 9.375 63.484375 14.515625 67.671875 
Q 19.671875 71.875 27.484375 71.875 
Q 33.25 71.875 37.59375 69.546875 
Q 41.9375 67.234375 44.765625 62.859375 
Q 47.609375 58.5 49.21875 52.21875 
Q 50.828125 45.953125 50.828125 35.296875 
Q 50.828125 22.703125 48.234375 14.96875 
Q 45.65625 7.234375 40.5 3 
Q 35.359375 -1.21875 27.484375 -1.21875 
Q 17.140625 -1.21875 11.234375 6.203125 
Q 4.15625 15.140625 4.15625 35.296875 
z
M 13.1875 35.296875 
Q 13.1875 17.671875 17.3125 11.828125 
Q 21.4375 6 27.484375 6 
Q 33.546875 6 37.671875 11.859375 
Q 41.796875 17.71875 41.796875 35.296875 
Q 41.796875 52.984375 37.671875 58.78125 
Q 33.546875 64.59375 27.390625 64.59375 
Q 21.34375 64.59375 17.71875 59.46875 
Q 13.1875 52.9375 13.1875 35.296875 
z
" id="ArialMT-48"/>
       <path d="M 52.828125 31.203125 
L 5.5625 31.203125 
L 5.5625 39.40625 
L 52.828125 39.40625 
z
" id="ArialMT-8722"/>
       <path d="M 4.203125 18.890625 
L 12.984375 20.0625 
Q 14.5 12.59375 18.140625 9.296875 
Q 21.78125 6 27 6 
Q 33.203125 6 37.46875 10.296875 
Q 41.75 14.59375 41.75 20.953125 
Q 41.75 27 37.796875 30.921875 
Q 33.84375 34.859375 27.734375 34.859375 
Q 25.25 34.859375 21.53125 33.890625 
L 22.515625 41.609375 
Q 23.390625 41.5 23.921875 41.5 
Q 29.546875 41.5 34.03125 44.421875 
Q 38.53125 47.359375 38.53125 53.46875 
Q 38.53125 58.296875 35.25 61.46875 
Q 31.984375 64.65625 26.8125 64.65625 
Q 21.6875 64.65625 18.265625 61.421875 
Q 14.84375 58.203125 13.875 51.765625 
L 5.078125 53.328125 
Q 6.6875 62.15625 12.390625 67.015625 
Q 18.109375 71.875 26.609375 71.875 
Q 32.46875 71.875 37.390625 69.359375 
Q 42.328125 66.84375 44.9375 62.5 
Q 47.5625 58.15625 47.5625 53.265625 
Q 47.5625 48.640625 45.0625 44.828125 
Q 42.578125 41.015625 37.703125 38.765625 
Q 44.046875 37.3125 47.5625 32.6875 
Q 51.078125 28.078125 51.078125 21.140625 
Q 51.078125 11.765625 44.234375 5.25 
Q 37.40625 -1.265625 26.953125 -1.265625 
Q 17.53125 -1.265625 11.296875 4.34375 
Q 5.078125 9.96875 4.203125 18.890625 
z
" id="ArialMT-51"/>
      </defs>
      <g style="fill:#262626;" transform="translate(102.186686 361.719125)scale(0.1 -0.1)">
       <use transform="translate(0 0.99375)" xlink:href="#ArialMT-49"/>
       <use transform="translate(55.615234 0.99375)" xlink:href="#ArialMT-48"/>
       <use transform="translate(112.972813 70.6875)scale(0.7)" xlink:href="#ArialMT-8722"/>
       <use transform="translate(153.851719 70.6875)scale(0.7)" xlink:href="#ArialMT-51"/>
      </g>
     </g>
    </g>
    <g id="xtick_2">
     <g id="line2d_2">
      <path clip-path="url(#p7bf27b4614)" d="M 239.060005 344.406625 
L 239.060005 29.81625 
" style="fill:none;stroke:#ffffff;stroke-linecap:round;"/>
     </g>
     <g id="text_2">
      <!-- $\mathdefault{10^{-2}}$ -->
      <defs>
       <path d="M 50.34375 8.453125 
L 50.34375 0 
L 3.03125 0 
Q 2.9375 3.171875 4.046875 6.109375 
Q 5.859375 10.9375 9.828125 15.625 
Q 13.8125 20.3125 21.34375 26.46875 
Q 33.015625 36.03125 37.109375 41.625 
Q 41.21875 47.21875 41.21875 52.203125 
Q 41.21875 57.421875 37.46875 61 
Q 33.734375 64.59375 27.734375 64.59375 
Q 21.390625 64.59375 17.578125 60.78125 
Q 13.765625 56.984375 13.71875 50.25 
L 4.6875 51.171875 
Q 5.609375 61.28125 11.65625 66.578125 
Q 17.71875 71.875 27.9375 71.875 
Q 38.234375 71.875 44.234375 66.15625 
Q 50.25 60.453125 50.25 52 
Q 50.25 47.703125 48.484375 43.546875 
Q 46.734375 39.40625 42.65625 34.8125 
Q 38.578125 30.21875 29.109375 22.21875 
Q 21.1875 15.578125 18.9375 13.203125 
Q 16.703125 10.84375 15.234375 8.453125 
z
" id="ArialMT-50"/>
      </defs>
      <g style="fill:#262626;" transform="translate(229.160005 361.719125)scale(0.1 -0.1)">
       <use transform="translate(0 0.99375)" xlink:href="#ArialMT-49"/>
       <use transform="translate(55.615234 0.99375)" xlink:href="#ArialMT-48"/>
       <use transform="translate(112.972813 70.6875)scale(0.7)" xlink:href="#ArialMT-8722"/>
       <use transform="translate(153.851719 70.6875)scale(0.7)" xlink:href="#ArialMT-50"/>
      </g>
     </g>
    </g>
    <g id="xtick_3">
     <g id="line2d_3">
      <path clip-path="url(#p7bf27b4614)" d="M 366.033325 344.406625 
L 366.033325 29.81625 
" style="fill:none;stroke:#ffffff;stroke-linecap:round;"/>
     </g>
     <g id="text_3">
      <!-- $\mathdefault{10^{-1}}$ -->
      <g style="fill:#262626;" transform="translate(356.133325 361.719125)scale(0.1 -0.1)">
       <use transform="translate(0 0.99375)" xlink:href="#ArialMT-49"/>
       <use transform="translate(55.615234 0.99375)" xlink:href="#ArialMT-48"/>
       <use transform="translate(112.972813 70.6875)scale(0.7)" xlink:href="#ArialMT-8722"/>
       <use transform="translate(153.851719 70.6875)scale(0.7)" xlink:href="#ArialMT-49"/>
      </g>
     </g>
    </g>
    <g id="xtick_4">
     <g id="line2d_4">
      <path clip-path="url(#p7bf27b4614)" d="M 493.006645 344.406625 
L 493.006645 29.81625 
" style="fill:none;stroke:#ffffff;stroke-linecap:round;"/>
     </g>
     <g id="text_4">
      <!-- $\mathdefault{10^{0}}$ -->
      <g style="fill:#262626;" transform="translate(485.156645 361.719125)scale(0.1 -0.1)">
       <use transform="translate(0 0.99375)" xlink:href="#ArialMT-49"/>
       <use transform="translate(55.615234 0.99375)" xlink:href="#ArialMT-48"/>
       <use transform="translate(112.972813 70.6875)scale(0.7)" xlink:href="#ArialMT-48"/>
      </g>
     </g>
    </g>
    <g id="xtick_5"/>
    <g id="xtick_6"/>
    <g id="xtick_7"/>
    <g id="xtick_8"/>
    <g id="xtick_9"/>
    <g id="xtick_10"/>
    <g id="xtick_11"/>
    <g id="xtick_12"/>
    <g id="xtick_13"/>
    <g id="xtick_14"/>
    <g id="xtick_15"/>
    <g id="xtick_16"/>
    <g id="xtick_17"/>
    <g id="xtick_18"/>
    <g id="xtick_19"/>
    <g id="xtick_20"/>
    <g id="xtick_21"/>
    <g id="xtick_22"/>
    <g id="xtick_23"/>
    <g id="xtick_24"/>
    <g id="xtick_25"/>
    <g id="xtick_26"/>
    <g id="xtick_27"/>
    <g id="xtick_28"/>
    <g id="xtick_29"/>
    <g id="xtick_30"/>
    <g id="xtick_31"/>
    <g id="xtick_32"/>
    <g id="xtick_33"/>
    <g id="xtick_34"/>
    <g id="xtick_35"/>
    <g id="xtick_36"/>
    <g id="text_5">
     <!-- ROE -->
     <defs>
      <path d="M 7.859375 0 
L 7.859375 71.578125 
L 39.59375 71.578125 
Q 49.171875 71.578125 54.140625 69.640625 
Q 59.125 67.71875 62.109375 62.828125 
Q 65.09375 57.953125 65.09375 52.046875 
Q 65.09375 44.4375 60.15625 39.203125 
Q 55.21875 33.984375 44.921875 32.5625 
Q 48.6875 30.765625 50.640625 29 
Q 54.78125 25.203125 58.5 19.484375 
L 70.953125 0 
L 59.03125 0 
L 49.5625 14.890625 
Q 45.40625 21.34375 42.71875 24.75 
Q 40.046875 28.171875 37.921875 29.53125 
Q 35.796875 30.90625 33.59375 31.453125 
Q 31.984375 31.78125 28.328125 31.78125 
L 17.328125 31.78125 
L 17.328125 0 
z
M 17.328125 39.984375 
L 37.703125 39.984375 
Q 44.1875 39.984375 47.84375 41.328125 
Q 51.515625 42.671875 53.421875 45.625 
Q 55.328125 48.578125 55.328125 52.046875 
Q 55.328125 57.125 51.640625 60.390625 
Q 47.953125 63.671875 39.984375 63.671875 
L 17.328125 63.671875 
z
" id="ArialMT-82"/>
      <path d="M 4.828125 34.859375 
Q 4.828125 52.6875 14.390625 62.765625 
Q 23.96875 72.859375 39.109375 72.859375 
Q 49.03125 72.859375 56.984375 68.109375 
Q 64.9375 63.375 69.109375 54.90625 
Q 73.296875 46.4375 73.296875 35.6875 
Q 73.296875 24.8125 68.890625 16.21875 
Q 64.5 7.625 56.4375 3.203125 
Q 48.390625 -1.21875 39.0625 -1.21875 
Q 28.953125 -1.21875 20.984375 3.65625 
Q 13.03125 8.546875 8.921875 16.984375 
Q 4.828125 25.4375 4.828125 34.859375 
z
M 14.59375 34.71875 
Q 14.59375 21.78125 21.546875 14.328125 
Q 28.515625 6.890625 39.015625 6.890625 
Q 49.703125 6.890625 56.609375 14.40625 
Q 63.53125 21.921875 63.53125 35.75 
Q 63.53125 44.484375 60.578125 51 
Q 57.625 57.515625 51.921875 61.109375 
Q 46.234375 64.703125 39.15625 64.703125 
Q 29.109375 64.703125 21.84375 57.78125 
Q 14.59375 50.875 14.59375 34.71875 
z
" id="ArialMT-79"/>
      <path d="M 7.90625 0 
L 7.90625 71.578125 
L 59.671875 71.578125 
L 59.671875 63.140625 
L 17.390625 63.140625 
L 17.390625 41.21875 
L 56.984375 41.21875 
L 56.984375 32.8125 
L 17.390625 32.8125 
L 17.390625 8.453125 
L 61.328125 8.453125 
L 61.328125 0 
z
" id="ArialMT-69"/>
     </defs>
     <g style="fill:#262626;" transform="translate(296.794416 375.580219)scale(0.11 -0.11)">
      <use xlink:href="#ArialMT-82"/>
      <use x="72.216797" xlink:href="#ArialMT-79"/>
      <use x="150" xlink:href="#ArialMT-69"/>
     </g>
    </g>
   </g>
   <g id="matplotlib.axis_2">
    <g id="ytick_1">
     <g id="line2d_5">
      <path clip-path="url(#p7bf27b4614)" d="M 56.546175 283.874212 
L 560.88 283.874212 
" style="fill:none;stroke:#ffffff;stroke-linecap:round;"/>
     </g>
     <g id="text_6">
      <!-- $\mathdefault{10^{-2}}$ -->
      <g style="fill:#262626;" transform="translate(29.746175 289.030462)scale(0.1 -0.1)">
       <use transform="translate(0 0.99375)" xlink:href="#ArialMT-49"/>
       <use transform="translate(55.615234 0.99375)" xlink:href="#ArialMT-48"/>
       <use transform="translate(112.972813 70.6875)scale(0.7)" xlink:href="#ArialMT-8722"/>
       <use transform="translate(153.851719 70.6875)scale(0.7)" xlink:href="#ArialMT-50"/>
      </g>
     </g>
    </g>
    <g id="ytick_2">
     <g id="line2d_6">
      <path clip-path="url(#p7bf27b4614)" d="M 56.546175 201.853324 
L 560.88 201.853324 
" style="fill:none;stroke:#ffffff;stroke-linecap:round;"/>
     </g>
     <g id="text_7">
      <!-- $\mathdefault{10^{-1}}$ -->
      <g style="fill:#262626;" transform="translate(29.746175 207.009574)scale(0.1 -0.1)">
       <use transform="translate(0 0.99375)" xlink:href="#ArialMT-49"/>
       <use transform="translate(55.615234 0.99375)" xlink:href="#ArialMT-48"/>
       <use transform="translate(112.972813 70.6875)scale(0.7)" xlink:href="#ArialMT-8722"/>
       <use transform="translate(153.851719 70.6875)scale(0.7)" xlink:href="#ArialMT-49"/>
      </g>
     </g>
    </g>
    <g id="ytick_3">
     <g id="line2d_7">
      <path clip-path="url(#p7bf27b4614)" d="M 56.546175 119.832436 
L 560.88 119.832436 
" style="fill:none;stroke:#ffffff;stroke-linecap:round;"/>
     </g>
     <g id="text_8">
      <!-- $\mathdefault{10^{0}}$ -->
      <g style="fill:#262626;" transform="translate(33.846175 124.988686)scale(0.1 -0.1)">
       <use transform="translate(0 0.99375)" xlink:href="#ArialMT-49"/>
       <use transform="translate(55.615234 0.99375)" xlink:href="#ArialMT-48"/>
       <use transform="translate(112.972813 70.6875)scale(0.7)" xlink:href="#ArialMT-48"/>
      </g>
     </g>
    </g>
    <g id="ytick_4">
     <g id="line2d_8">
      <path clip-path="url(#p7bf27b4614)" d="M 56.546175 37.811548 
L 560.88 37.811548 
" style="fill:none;stroke:#ffffff;stroke-linecap:round;"/>
     </g>
     <g id="text_9">
      <!-- $\mathdefault{10^{1}}$ -->
      <g style="fill:#262626;" transform="translate(33.846175 42.967798)scale(0.1 -0.1)">
       <use transform="translate(0 0.99375)" xlink:href="#ArialMT-49"/>
       <use transform="translate(55.615234 0.99375)" xlink:href="#ArialMT-48"/>
       <use transform="translate(112.972813 70.6875)scale(0.7)" xlink:href="#ArialMT-49"/>
      </g>
     </g>
    </g>
    <g id="ytick_5"/>
    <g id="ytick_6"/>
    <g id="ytick_7"/>
    <g id="ytick_8"/>
    <g id="ytick_9"/>
    <g id="ytick_10"/>
    <g id="ytick_11"/>
    <g id="ytick_12"/>
    <g id="ytick_13"/>
    <g id="ytick_14"/>
    <g id="ytick_15"/>
    <g id="ytick_16"/>
    <g id="ytick_17"/>
    <g id="ytick_18"/>
    <g id="ytick_19"/>
    <g id="ytick_20"/>
    <g id="ytick_21"/>
    <g id="ytick_22"/>
    <g id="ytick_23"/>
    <g id="ytick_24"/>
    <g id="ytick_25"/>
    <g id="ytick_26"/>
    <g id="ytick_27"/>
    <g id="ytick_28"/>
    <g id="ytick_29"/>
    <g id="ytick_30"/>
    <g id="ytick_31"/>
    <g id="ytick_32"/>
    <g id="ytick_33"/>
    <g id="ytick_34"/>
    <g id="ytick_35"/>
    <g id="ytick_36"/>
    <g id="text_10">
     <!-- DPR -->
     <defs>
      <path d="M 7.71875 0 
L 7.71875 71.578125 
L 32.375 71.578125 
Q 40.71875 71.578125 45.125 70.5625 
Q 51.265625 69.140625 55.609375 65.4375 
Q 61.28125 60.640625 64.078125 53.1875 
Q 66.890625 45.75 66.890625 36.1875 
Q 66.890625 28.03125 64.984375 21.734375 
Q 63.09375 15.4375 60.109375 11.296875 
Q 57.125 7.171875 53.578125 4.796875 
Q 50.046875 2.4375 45.046875 1.21875 
Q 40.046875 0 33.546875 0 
z
M 17.1875 8.453125 
L 32.46875 8.453125 
Q 39.546875 8.453125 43.578125 9.765625 
Q 47.609375 11.078125 50 13.484375 
Q 53.375 16.84375 55.25 22.53125 
Q 57.125 28.21875 57.125 36.328125 
Q 57.125 47.5625 53.4375 53.59375 
Q 49.75 59.625 44.484375 61.671875 
Q 40.671875 63.140625 32.234375 63.140625 
L 17.1875 63.140625 
z
" id="ArialMT-68"/>
      <path d="M 7.71875 0 
L 7.71875 71.578125 
L 34.71875 71.578125 
Q 41.84375 71.578125 45.609375 70.90625 
Q 50.875 70.015625 54.4375 67.546875 
Q 58.015625 65.09375 60.1875 60.640625 
Q 62.359375 56.203125 62.359375 50.875 
Q 62.359375 41.75 56.546875 35.421875 
Q 50.734375 29.109375 35.546875 29.109375 
L 17.1875 29.109375 
L 17.1875 0 
z
M 17.1875 37.546875 
L 35.6875 37.546875 
Q 44.875 37.546875 48.734375 40.96875 
Q 52.59375 44.390625 52.59375 50.59375 
Q 52.59375 55.078125 50.3125 58.265625 
Q 48.046875 61.46875 44.34375 62.5 
Q 41.9375 63.140625 35.5 63.140625 
L 17.1875 63.140625 
z
" id="ArialMT-80"/>
     </defs>
     <g style="fill:#262626;" transform="translate(23.559925 198.724172)rotate(-90)scale(0.11 -0.11)">
      <use xlink:href="#ArialMT-68"/>
      <use x="72.216797" xlink:href="#ArialMT-80"/>
      <use x="138.916016" xlink:href="#ArialMT-82"/>
     </g>
    </g>
   </g>
   <g id="PathCollection_1">
    <defs>
     <path d="M 0 3.5 
C 0.928211 3.5 1.81853 3.131218 2.474874 2.474874 
C 3.131218 1.81853 3.5 0.928211 3.5 0 
C 3.5 -0.928211 3.131218 -1.81853 2.474874 -2.474874 
C 1.81853 -3.131218 0.928211 -3.5 0 -3.5 
C -0.928211 -3.5 -1.81853 -3.131218 -2.474874 -2.474874 
C -3.131218 -1.81853 -3.5 -0.928211 -3.5 0 
C -3.5 0.928211 -3.131218 1.81853 -2.474874 2.474874 
C -1.81853 3.131218 -0.928211 3.5 0 3.5 
z
" id="ma71a659cc8" style="stroke:#000000;stroke-opacity:0.75;"/>
    </defs>
    <g clip-path="url(#p7bf27b4614)">
     <use style="fill:#4c72b0;fill-opacity:0.75;stroke:#000000;stroke-opacity:0.75;" x="327.30879" xlink:href="#ma71a659cc8" y="169.650555"/>
     <use style="fill:#4c72b0;fill-opacity:0.75;stroke:#000000;stroke-opacity:0.75;" x="390.787365" xlink:href="#ma71a659cc8" y="174.683451"/>
     <use style="fill:#4c72b0;fill-opacity:0.75;stroke:#000000;stroke-opacity:0.75;" x="417.797342" xlink:href="#ma71a659cc8" y="155.149831"/>
     <use style="fill:#4c72b0;fill-opacity:0.75;stroke:#000000;stroke-opacity:0.75;" x="382.345789" xlink:href="#ma71a659cc8" y="166.586236"/>
     <use style="fill:#4c72b0;fill-opacity:0.75;stroke:#000000;stroke-opacity:0.75;" x="415.357686" xlink:href="#ma71a659cc8" y="211.174368"/>
     <use style="fill:#4c72b0;fill-opacity:0.75;stroke:#000000;stroke-opacity:0.75;" x="394.135615" xlink:href="#ma71a659cc8" y="129.473647"/>
     <use style="fill:#4c72b0;fill-opacity:0.75;stroke:#000000;stroke-opacity:0.75;" x="437.677936" xlink:href="#ma71a659cc8" y="126.633675"/>
     <use style="fill:#4c72b0;fill-opacity:0.75;stroke:#000000;stroke-opacity:0.75;" x="403.279574" xlink:href="#ma71a659cc8" y="151.537668"/>
     <use style="fill:#4c72b0;fill-opacity:0.75;stroke:#000000;stroke-opacity:0.75;" x="403.557484" xlink:href="#ma71a659cc8" y="189.118123"/>
     <use style="fill:#4c72b0;fill-opacity:0.75;stroke:#000000;stroke-opacity:0.75;" x="378.678572" xlink:href="#ma71a659cc8" y="149.133559"/>
     <use style="fill:#4c72b0;fill-opacity:0.75;stroke:#000000;stroke-opacity:0.75;" x="386.673167" xlink:href="#ma71a659cc8" y="152.306748"/>
     <use style="fill:#4c72b0;fill-opacity:0.75;stroke:#000000;stroke-opacity:0.75;" x="423.280504" xlink:href="#ma71a659cc8" y="175.286401"/>
     <use style="fill:#4c72b0;fill-opacity:0.75;stroke:#000000;stroke-opacity:0.75;" x="370.631536" xlink:href="#ma71a659cc8" y="176.881499"/>
     <use style="fill:#4c72b0;fill-opacity:0.75;stroke:#000000;stroke-opacity:0.75;" x="415.157521" xlink:href="#ma71a659cc8" y="206.797711"/>
     <use style="fill:#4c72b0;fill-opacity:0.75;stroke:#000000;stroke-opacity:0.75;" x="340.315847" xlink:href="#ma71a659cc8" y="186.081634"/>
     <use style="fill:#4c72b0;fill-opacity:0.75;stroke:#000000;stroke-opacity:0.75;" x="401.095777" xlink:href="#ma71a659cc8" y="154.000785"/>
     <use style="fill:#4c72b0;fill-opacity:0.75;stroke:#000000;stroke-opacity:0.75;" x="352.486669" xlink:href="#ma71a659cc8" y="140.488756"/>
     <use style="fill:#4c72b0;fill-opacity:0.75;stroke:#000000;stroke-opacity:0.75;" x="322.787222" xlink:href="#ma71a659cc8" y="199.781739"/>
     <use style="fill:#4c72b0;fill-opacity:0.75;stroke:#000000;stroke-opacity:0.75;" x="419.602921" xlink:href="#ma71a659cc8" y="163.870235"/>
     <use style="fill:#4c72b0;fill-opacity:0.75;stroke:#000000;stroke-opacity:0.75;" x="502.766456" xlink:href="#ma71a659cc8" y="121.957108"/>
     <use style="fill:#4c72b0;fill-opacity:0.75;stroke:#000000;stroke-opacity:0.75;" x="408.190353" xlink:href="#ma71a659cc8" y="176.406029"/>
     <use style="fill:#4c72b0;fill-opacity:0.75;stroke:#000000;stroke-opacity:0.75;" x="303.533912" xlink:href="#ma71a659cc8" y="188.626066"/>
     <use style="fill:#4c72b0;fill-opacity:0.75;stroke:#000000;stroke-opacity:0.75;" x="399.225617" xlink:href="#ma71a659cc8" y="176.479577"/>
     <use style="fill:#4c72b0;fill-opacity:0.75;stroke:#000000;stroke-opacity:0.75;" x="462.131392" xlink:href="#ma71a659cc8" y="251.958585"/>
     <use style="fill:#4c72b0;fill-opacity:0.75;stroke:#000000;stroke-opacity:0.75;" x="358.875519" xlink:href="#ma71a659cc8" y="160.084383"/>
     <use style="fill:#4c72b0;fill-opacity:0.75;stroke:#000000;stroke-opacity:0.75;" x="426.671097" xlink:href="#ma71a659cc8" y="138.528301"/>
     <use style="fill:#4c72b0;fill-opacity:0.75;stroke:#000000;stroke-opacity:0.75;" x="356.763448" xlink:href="#ma71a659cc8" y="141.327669"/>
     <use style="fill:#4c72b0;fill-opacity:0.75;stroke:#000000;stroke-opacity:0.75;" x="367.385953" xlink:href="#ma71a659cc8" y="129.933522"/>
     <use style="fill:#4c72b0;fill-opacity:0.75;stroke:#000000;stroke-opacity:0.75;" x="343.103629" xlink:href="#ma71a659cc8" y="155.666063"/>
     <use style="fill:#4c72b0;fill-opacity:0.75;stroke:#000000;stroke-opacity:0.75;" x="373.073764" xlink:href="#ma71a659cc8" y="149.453575"/>
     <use style="fill:#4c72b0;fill-opacity:0.75;stroke:#000000;stroke-opacity:0.75;" x="404.417698" xlink:href="#ma71a659cc8" y="278.376856"/>
     <use style="fill:#4c72b0;fill-opacity:0.75;stroke:#000000;stroke-opacity:0.75;" x="506.030733" xlink:href="#ma71a659cc8" y="120.522642"/>
     <use style="fill:#4c72b0;fill-opacity:0.75;stroke:#000000;stroke-opacity:0.75;" x="366.499455" xlink:href="#ma71a659cc8" y="142.76978"/>
     <use style="fill:#4c72b0;fill-opacity:0.75;stroke:#000000;stroke-opacity:0.75;" x="372.107338" xlink:href="#ma71a659cc8" y="179.417888"/>
     <use style="fill:#4c72b0;fill-opacity:0.75;stroke:#000000;stroke-opacity:0.75;" x="318.317667" xlink:href="#ma71a659cc8" y="143.922554"/>
     <use style="fill:#4c72b0;fill-opacity:0.75;stroke:#000000;stroke-opacity:0.75;" x="390.868969" xlink:href="#ma71a659cc8" y="154.986279"/>
     <use style="fill:#4c72b0;fill-opacity:0.75;stroke:#000000;stroke-opacity:0.75;" x="414.645236" xlink:href="#ma71a659cc8" y="143.090001"/>
     <use style="fill:#4c72b0;fill-opacity:0.75;stroke:#000000;stroke-opacity:0.75;" x="381.701608" xlink:href="#ma71a659cc8" y="129.965629"/>
     <use style="fill:#4c72b0;fill-opacity:0.75;stroke:#000000;stroke-opacity:0.75;" x="397.407181" xlink:href="#ma71a659cc8" y="128.847409"/>
     <use style="fill:#4c72b0;fill-opacity:0.75;stroke:#000000;stroke-opacity:0.75;" x="399.238053" xlink:href="#ma71a659cc8" y="134.884525"/>
     <use style="fill:#4c72b0;fill-opacity:0.75;stroke:#000000;stroke-opacity:0.75;" x="437.57059" xlink:href="#ma71a659cc8" y="119.706182"/>
     <use style="fill:#4c72b0;fill-opacity:0.75;stroke:#000000;stroke-opacity:0.75;" x="396.495308" xlink:href="#ma71a659cc8" y="141.116181"/>
     <use style="fill:#4c72b0;fill-opacity:0.75;stroke:#000000;stroke-opacity:0.75;" x="393.013148" xlink:href="#ma71a659cc8" y="223.958857"/>
     <use style="fill:#4c72b0;fill-opacity:0.75;stroke:#000000;stroke-opacity:0.75;" x="381.635355" xlink:href="#ma71a659cc8" y="146.476294"/>
     <use style="fill:#4c72b0;fill-opacity:0.75;stroke:#000000;stroke-opacity:0.75;" x="350.047443" xlink:href="#ma71a659cc8" y="97.719487"/>
     <use style="fill:#4c72b0;fill-opacity:0.75;stroke:#000000;stroke-opacity:0.75;" x="429.043962" xlink:href="#ma71a659cc8" y="181.671547"/>
     <use style="fill:#4c72b0;fill-opacity:0.75;stroke:#000000;stroke-opacity:0.75;" x="378.731596" xlink:href="#ma71a659cc8" y="183.983771"/>
     <use style="fill:#4c72b0;fill-opacity:0.75;stroke:#000000;stroke-opacity:0.75;" x="399.311777" xlink:href="#ma71a659cc8" y="196.557162"/>
     <use style="fill:#4c72b0;fill-opacity:0.75;stroke:#000000;stroke-opacity:0.75;" x="465.080657" xlink:href="#ma71a659cc8" y="281.628201"/>
     <use style="fill:#4c72b0;fill-opacity:0.75;stroke:#000000;stroke-opacity:0.75;" x="397.152639" xlink:href="#ma71a659cc8" y="149.986521"/>
     <use style="fill:#4c72b0;fill-opacity:0.75;stroke:#000000;stroke-opacity:0.75;" x="206.594025" xlink:href="#ma71a659cc8" y="44.149502"/>
     <use style="fill:#4c72b0;fill-opacity:0.75;stroke:#000000;stroke-opacity:0.75;" x="367.3089" xlink:href="#ma71a659cc8" y="208.333501"/>
     <use style="fill:#4c72b0;fill-opacity:0.75;stroke:#000000;stroke-opacity:0.75;" x="417.310631" xlink:href="#ma71a659cc8" y="128.439505"/>
     <use style="fill:#4c72b0;fill-opacity:0.75;stroke:#000000;stroke-opacity:0.75;" x="504.886026" xlink:href="#ma71a659cc8" y="127.216851"/>
     <use style="fill:#4c72b0;fill-opacity:0.75;stroke:#000000;stroke-opacity:0.75;" x="407.857627" xlink:href="#ma71a659cc8" y="161.970523"/>
     <use style="fill:#4c72b0;fill-opacity:0.75;stroke:#000000;stroke-opacity:0.75;" x="305.779502" xlink:href="#ma71a659cc8" y="191.578732"/>
     <use style="fill:#4c72b0;fill-opacity:0.75;stroke:#000000;stroke-opacity:0.75;" x="320.931231" xlink:href="#ma71a659cc8" y="140.595262"/>
     <use style="fill:#4c72b0;fill-opacity:0.75;stroke:#000000;stroke-opacity:0.75;" x="324.668797" xlink:href="#ma71a659cc8" y="174.757136"/>
     <use style="fill:#4c72b0;fill-opacity:0.75;stroke:#000000;stroke-opacity:0.75;" x="314.775052" xlink:href="#ma71a659cc8" y="145.920053"/>
     <use style="fill:#4c72b0;fill-opacity:0.75;stroke:#000000;stroke-opacity:0.75;" x="428.087902" xlink:href="#ma71a659cc8" y="140.517471"/>
     <use style="fill:#4c72b0;fill-opacity:0.75;stroke:#000000;stroke-opacity:0.75;" x="356.948188" xlink:href="#ma71a659cc8" y="142.937971"/>
     <use style="fill:#4c72b0;fill-opacity:0.75;stroke:#000000;stroke-opacity:0.75;" x="388.045671" xlink:href="#ma71a659cc8" y="161.449799"/>
     <use style="fill:#4c72b0;fill-opacity:0.75;stroke:#000000;stroke-opacity:0.75;" x="333.530485" xlink:href="#ma71a659cc8" y="167.130845"/>
     <use style="fill:#4c72b0;fill-opacity:0.75;stroke:#000000;stroke-opacity:0.75;" x="360.741341" xlink:href="#ma71a659cc8" y="145.40811"/>
     <use style="fill:#4c72b0;fill-opacity:0.75;stroke:#000000;stroke-opacity:0.75;" x="393.663658" xlink:href="#ma71a659cc8" y="213.875713"/>
     <use style="fill:#4c72b0;fill-opacity:0.75;stroke:#000000;stroke-opacity:0.75;" x="510.51948" xlink:href="#ma71a659cc8" y="123.046431"/>
     <use style="fill:#4c72b0;fill-opacity:0.75;stroke:#000000;stroke-opacity:0.75;" x="277.366062" xlink:href="#ma71a659cc8" y="101.700515"/>
     <use style="fill:#4c72b0;fill-opacity:0.75;stroke:#000000;stroke-opacity:0.75;" x="377.517562" xlink:href="#ma71a659cc8" y="170.451506"/>
     <use style="fill:#4c72b0;fill-opacity:0.75;stroke:#000000;stroke-opacity:0.75;" x="343.419241" xlink:href="#ma71a659cc8" y="156.646789"/>
     <use style="fill:#4c72b0;fill-opacity:0.75;stroke:#000000;stroke-opacity:0.75;" x="413.659843" xlink:href="#ma71a659cc8" y="177.223759"/>
     <use style="fill:#4c72b0;fill-opacity:0.75;stroke:#000000;stroke-opacity:0.75;" x="420.958363" xlink:href="#ma71a659cc8" y="138.190668"/>
     <use style="fill:#4c72b0;fill-opacity:0.75;stroke:#000000;stroke-opacity:0.75;" x="395.09916" xlink:href="#ma71a659cc8" y="138.792544"/>
     <use style="fill:#4c72b0;fill-opacity:0.75;stroke:#000000;stroke-opacity:0.75;" x="431.333781" xlink:href="#ma71a659cc8" y="164.36789"/>
     <use style="fill:#4c72b0;fill-opacity:0.75;stroke:#000000;stroke-opacity:0.75;" x="397.377047" xlink:href="#ma71a659cc8" y="136.318069"/>
     <use style="fill:#4c72b0;fill-opacity:0.75;stroke:#000000;stroke-opacity:0.75;" x="440.437302" xlink:href="#ma71a659cc8" y="122.967688"/>
     <use style="fill:#4c72b0;fill-opacity:0.75;stroke:#000000;stroke-opacity:0.75;" x="411.796269" xlink:href="#ma71a659cc8" y="143.359694"/>
     <use style="fill:#4c72b0;fill-opacity:0.75;stroke:#000000;stroke-opacity:0.75;" x="363.143306" xlink:href="#ma71a659cc8" y="200.564123"/>
     <use style="fill:#4c72b0;fill-opacity:0.75;stroke:#000000;stroke-opacity:0.75;" x="388.276771" xlink:href="#ma71a659cc8" y="150.914527"/>
     <use style="fill:#4c72b0;fill-opacity:0.75;stroke:#000000;stroke-opacity:0.75;" x="331.523256" xlink:href="#ma71a659cc8" y="93.844291"/>
     <use style="fill:#4c72b0;fill-opacity:0.75;stroke:#000000;stroke-opacity:0.75;" x="390.237325" xlink:href="#ma71a659cc8" y="163.718587"/>
     <use style="fill:#4c72b0;fill-opacity:0.75;stroke:#000000;stroke-opacity:0.75;" x="412.227936" xlink:href="#ma71a659cc8" y="193.495264"/>
     <use style="fill:#4c72b0;fill-opacity:0.75;stroke:#000000;stroke-opacity:0.75;" x="383.004947" xlink:href="#ma71a659cc8" y="198.320229"/>
     <use style="fill:#4c72b0;fill-opacity:0.75;stroke:#000000;stroke-opacity:0.75;" x="327.611996" xlink:href="#ma71a659cc8" y="168.501303"/>
     <use style="fill:#4c72b0;fill-opacity:0.75;stroke:#000000;stroke-opacity:0.75;" x="394.280189" xlink:href="#ma71a659cc8" y="147.000115"/>
     <use style="fill:#4c72b0;fill-opacity:0.75;stroke:#000000;stroke-opacity:0.75;" x="341.883739" xlink:href="#ma71a659cc8" y="167.708097"/>
     <use style="fill:#4c72b0;fill-opacity:0.75;stroke:#000000;stroke-opacity:0.75;" x="300.322313" xlink:href="#ma71a659cc8" y="171.238062"/>
     <use style="fill:#4c72b0;fill-opacity:0.75;stroke:#000000;stroke-opacity:0.75;" x="537.833652" xlink:href="#ma71a659cc8" y="117.107063"/>
     <use style="fill:#4c72b0;fill-opacity:0.75;stroke:#000000;stroke-opacity:0.75;" x="495.792768" xlink:href="#ma71a659cc8" y="123.057043"/>
     <use style="fill:#4c72b0;fill-opacity:0.75;stroke:#000000;stroke-opacity:0.75;" x="407.277986" xlink:href="#ma71a659cc8" y="158.090939"/>
     <use style="fill:#4c72b0;fill-opacity:0.75;stroke:#000000;stroke-opacity:0.75;" x="312.075944" xlink:href="#ma71a659cc8" y="196.838237"/>
     <use style="fill:#4c72b0;fill-opacity:0.75;stroke:#000000;stroke-opacity:0.75;" x="324.078499" xlink:href="#ma71a659cc8" y="167.251345"/>
     <use style="fill:#4c72b0;fill-opacity:0.75;stroke:#000000;stroke-opacity:0.75;" x="369.336716" xlink:href="#ma71a659cc8" y="195.116366"/>
     <use style="fill:#4c72b0;fill-opacity:0.75;stroke:#000000;stroke-opacity:0.75;" x="280.438328" xlink:href="#ma71a659cc8" y="144.640797"/>
     <use style="fill:#4c72b0;fill-opacity:0.75;stroke:#000000;stroke-opacity:0.75;" x="427.143722" xlink:href="#ma71a659cc8" y="144.136318"/>
     <use style="fill:#4c72b0;fill-opacity:0.75;stroke:#000000;stroke-opacity:0.75;" x="365.845091" xlink:href="#ma71a659cc8" y="150.819824"/>
     <use style="fill:#4c72b0;fill-opacity:0.75;stroke:#000000;stroke-opacity:0.75;" x="409.115606" xlink:href="#ma71a659cc8" y="150.843763"/>
     <use style="fill:#4c72b0;fill-opacity:0.75;stroke:#000000;stroke-opacity:0.75;" x="333.713972" xlink:href="#ma71a659cc8" y="167.265183"/>
     <use style="fill:#4c72b0;fill-opacity:0.75;stroke:#000000;stroke-opacity:0.75;" x="367.01461" xlink:href="#ma71a659cc8" y="156.381839"/>
     <use style="fill:#4c72b0;fill-opacity:0.75;stroke:#000000;stroke-opacity:0.75;" x="387.311656" xlink:href="#ma71a659cc8" y="172.721839"/>
     <use style="fill:#4c72b0;fill-opacity:0.75;stroke:#000000;stroke-opacity:0.75;" x="504.805939" xlink:href="#ma71a659cc8" y="130.658741"/>
     <use style="fill:#4c72b0;fill-opacity:0.75;stroke:#000000;stroke-opacity:0.75;" x="293.839918" xlink:href="#ma71a659cc8" y="113.317266"/>
     <use style="fill:#4c72b0;fill-opacity:0.75;stroke:#000000;stroke-opacity:0.75;" x="390.631312" xlink:href="#ma71a659cc8" y="176.039329"/>
    </g>
   </g>
   <g id="patch_3">
    <path d="M 56.546175 344.406625 
L 56.546175 29.81625 
" style="fill:none;"/>
   </g>
   <g id="patch_4">
    <path d="M 560.88 344.406625 
L 560.88 29.81625 
" style="fill:none;"/>
   </g>
   <g id="patch_5">
    <path d="M 56.546175 344.406625 
L 560.88 344.406625 
" style="fill:none;"/>
   </g>
   <g id="patch_6">
    <path d="M 56.546175 29.81625 
L 560.88 29.81625 
" style="fill:none;"/>
   </g>
   <g id="text_11">
    <!-- Scatterplot for log data -->
    <defs>
     <path d="M 4.5 23 
L 13.421875 23.78125 
Q 14.0625 18.40625 16.375 14.96875 
Q 18.703125 11.53125 23.578125 9.40625 
Q 28.46875 7.28125 34.578125 7.28125 
Q 39.984375 7.28125 44.140625 8.890625 
Q 48.296875 10.5 50.3125 13.296875 
Q 52.34375 16.109375 52.34375 19.4375 
Q 52.34375 22.796875 50.390625 25.3125 
Q 48.4375 27.828125 43.953125 29.546875 
Q 41.0625 30.671875 31.203125 33.03125 
Q 21.34375 35.40625 17.390625 37.5 
Q 12.25 40.1875 9.734375 44.15625 
Q 7.234375 48.140625 7.234375 53.078125 
Q 7.234375 58.5 10.296875 63.203125 
Q 13.375 67.921875 19.28125 70.359375 
Q 25.203125 72.796875 32.421875 72.796875 
Q 40.375 72.796875 46.453125 70.234375 
Q 52.546875 67.671875 55.8125 62.6875 
Q 59.078125 57.71875 59.328125 51.421875 
L 50.25 50.734375 
Q 49.515625 57.515625 45.28125 60.984375 
Q 41.0625 64.453125 32.8125 64.453125 
Q 24.21875 64.453125 20.28125 61.296875 
Q 16.359375 58.15625 16.359375 53.71875 
Q 16.359375 49.859375 19.140625 47.359375 
Q 21.875 44.875 33.421875 42.265625 
Q 44.96875 39.65625 49.265625 37.703125 
Q 55.515625 34.8125 58.484375 30.390625 
Q 61.46875 25.984375 61.46875 20.21875 
Q 61.46875 14.5 58.203125 9.4375 
Q 54.9375 4.390625 48.796875 1.578125 
Q 42.671875 -1.21875 35.015625 -1.21875 
Q 25.296875 -1.21875 18.71875 1.609375 
Q 12.15625 4.4375 8.421875 10.125 
Q 4.6875 15.828125 4.5 23 
z
" id="ArialMT-83"/>
     <path d="M 40.4375 19 
L 49.078125 17.875 
Q 47.65625 8.9375 41.8125 3.875 
Q 35.984375 -1.171875 27.484375 -1.171875 
Q 16.84375 -1.171875 10.375 5.78125 
Q 3.90625 12.75 3.90625 25.734375 
Q 3.90625 34.125 6.6875 40.421875 
Q 9.46875 46.734375 15.15625 49.875 
Q 20.84375 53.03125 27.546875 53.03125 
Q 35.984375 53.03125 41.359375 48.75 
Q 46.734375 44.484375 48.25 36.625 
L 39.703125 35.296875 
Q 38.484375 40.53125 35.375 43.15625 
Q 32.28125 45.796875 27.875 45.796875 
Q 21.234375 45.796875 17.078125 41.03125 
Q 12.9375 36.28125 12.9375 25.984375 
Q 12.9375 15.53125 16.9375 10.796875 
Q 20.953125 6.0625 27.390625 6.0625 
Q 32.5625 6.0625 36.03125 9.234375 
Q 39.5 12.40625 40.4375 19 
z
" id="ArialMT-99"/>
     <path d="M 40.4375 6.390625 
Q 35.546875 2.25 31.03125 0.53125 
Q 26.515625 -1.171875 21.34375 -1.171875 
Q 12.796875 -1.171875 8.203125 3 
Q 3.609375 7.171875 3.609375 13.671875 
Q 3.609375 17.484375 5.34375 20.625 
Q 7.078125 23.78125 9.890625 25.6875 
Q 12.703125 27.59375 16.21875 28.5625 
Q 18.796875 29.25 24.03125 29.890625 
Q 34.671875 31.15625 39.703125 32.90625 
Q 39.75 34.71875 39.75 35.203125 
Q 39.75 40.578125 37.25 42.78125 
Q 33.890625 45.75 27.25 45.75 
Q 21.046875 45.75 18.09375 43.578125 
Q 15.140625 41.40625 13.71875 35.890625 
L 5.125 37.0625 
Q 6.296875 42.578125 8.984375 45.96875 
Q 11.671875 49.359375 16.75 51.1875 
Q 21.828125 53.03125 28.515625 53.03125 
Q 35.15625 53.03125 39.296875 51.46875 
Q 43.453125 49.90625 45.40625 47.53125 
Q 47.359375 45.171875 48.140625 41.546875 
Q 48.578125 39.3125 48.578125 33.453125 
L 48.578125 21.734375 
Q 48.578125 9.46875 49.140625 6.21875 
Q 49.703125 2.984375 51.375 0 
L 42.1875 0 
Q 40.828125 2.734375 40.4375 6.390625 
z
M 39.703125 26.03125 
Q 34.90625 24.078125 25.34375 22.703125 
Q 19.921875 21.921875 17.671875 20.9375 
Q 15.4375 19.96875 14.203125 18.09375 
Q 12.984375 16.21875 12.984375 13.921875 
Q 12.984375 10.40625 15.640625 8.0625 
Q 18.3125 5.71875 23.4375 5.71875 
Q 28.515625 5.71875 32.46875 7.9375 
Q 36.421875 10.15625 38.28125 14.015625 
Q 39.703125 17 39.703125 22.796875 
z
" id="ArialMT-97"/>
     <path d="M 25.78125 7.859375 
L 27.046875 0.09375 
Q 23.34375 -0.6875 20.40625 -0.6875 
Q 15.625 -0.6875 12.984375 0.828125 
Q 10.359375 2.34375 9.28125 4.8125 
Q 8.203125 7.28125 8.203125 15.1875 
L 8.203125 45.015625 
L 1.765625 45.015625 
L 1.765625 51.859375 
L 8.203125 51.859375 
L 8.203125 64.703125 
L 16.9375 69.96875 
L 16.9375 51.859375 
L 25.78125 51.859375 
L 25.78125 45.015625 
L 16.9375 45.015625 
L 16.9375 14.703125 
Q 16.9375 10.9375 17.40625 9.859375 
Q 17.875 8.796875 18.921875 8.15625 
Q 19.96875 7.515625 21.921875 7.515625 
Q 23.390625 7.515625 25.78125 7.859375 
z
" id="ArialMT-116"/>
     <path d="M 42.09375 16.703125 
L 51.171875 15.578125 
Q 49.03125 7.625 43.21875 3.21875 
Q 37.40625 -1.171875 28.375 -1.171875 
Q 17 -1.171875 10.328125 5.828125 
Q 3.65625 12.84375 3.65625 25.484375 
Q 3.65625 38.578125 10.390625 45.796875 
Q 17.140625 53.03125 27.875 53.03125 
Q 38.28125 53.03125 44.875 45.953125 
Q 51.46875 38.875 51.46875 26.03125 
Q 51.46875 25.25 51.421875 23.6875 
L 12.75 23.6875 
Q 13.234375 15.140625 17.578125 10.59375 
Q 21.921875 6.0625 28.421875 6.0625 
Q 33.25 6.0625 36.671875 8.59375 
Q 40.09375 11.140625 42.09375 16.703125 
z
M 13.234375 30.90625 
L 42.1875 30.90625 
Q 41.609375 37.453125 38.875 40.71875 
Q 34.671875 45.796875 27.984375 45.796875 
Q 21.921875 45.796875 17.796875 41.75 
Q 13.671875 37.703125 13.234375 30.90625 
z
" id="ArialMT-101"/>
     <path d="M 6.5 0 
L 6.5 51.859375 
L 14.40625 51.859375 
L 14.40625 44 
Q 17.4375 49.515625 20 51.265625 
Q 22.5625 53.03125 25.640625 53.03125 
Q 30.078125 53.03125 34.671875 50.203125 
L 31.640625 42.046875 
Q 28.421875 43.953125 25.203125 43.953125 
Q 22.3125 43.953125 20.015625 42.21875 
Q 17.71875 40.484375 16.75 37.40625 
Q 15.28125 32.71875 15.28125 27.15625 
L 15.28125 0 
z
" id="ArialMT-114"/>
     <path d="M 6.59375 -19.875 
L 6.59375 51.859375 
L 14.59375 51.859375 
L 14.59375 45.125 
Q 17.4375 49.078125 21 51.046875 
Q 24.5625 53.03125 29.640625 53.03125 
Q 36.28125 53.03125 41.359375 49.609375 
Q 46.4375 46.1875 49.015625 39.953125 
Q 51.609375 33.734375 51.609375 26.3125 
Q 51.609375 18.359375 48.75 11.984375 
Q 45.90625 5.609375 40.453125 2.21875 
Q 35.015625 -1.171875 29 -1.171875 
Q 24.609375 -1.171875 21.109375 0.6875 
Q 17.625 2.546875 15.375 5.375 
L 15.375 -19.875 
z
M 14.546875 25.640625 
Q 14.546875 15.625 18.59375 10.84375 
Q 22.65625 6.0625 28.421875 6.0625 
Q 34.28125 6.0625 38.453125 11.015625 
Q 42.625 15.96875 42.625 26.375 
Q 42.625 36.28125 38.546875 41.203125 
Q 34.46875 46.140625 28.8125 46.140625 
Q 23.1875 46.140625 18.859375 40.890625 
Q 14.546875 35.640625 14.546875 25.640625 
z
" id="ArialMT-112"/>
     <path d="M 6.390625 0 
L 6.390625 71.578125 
L 15.1875 71.578125 
L 15.1875 0 
z
" id="ArialMT-108"/>
     <path d="M 3.328125 25.921875 
Q 3.328125 40.328125 11.328125 47.265625 
Q 18.015625 53.03125 27.640625 53.03125 
Q 38.328125 53.03125 45.109375 46.015625 
Q 51.90625 39.015625 51.90625 26.65625 
Q 51.90625 16.65625 48.90625 10.90625 
Q 45.90625 5.171875 40.15625 2 
Q 34.421875 -1.171875 27.640625 -1.171875 
Q 16.75 -1.171875 10.03125 5.8125 
Q 3.328125 12.796875 3.328125 25.921875 
z
M 12.359375 25.921875 
Q 12.359375 15.96875 16.703125 11.015625 
Q 21.046875 6.0625 27.640625 6.0625 
Q 34.1875 6.0625 38.53125 11.03125 
Q 42.875 16.015625 42.875 26.21875 
Q 42.875 35.84375 38.5 40.796875 
Q 34.125 45.75 27.640625 45.75 
Q 21.046875 45.75 16.703125 40.8125 
Q 12.359375 35.890625 12.359375 25.921875 
z
" id="ArialMT-111"/>
     <path id="ArialMT-32"/>
     <path d="M 8.6875 0 
L 8.6875 45.015625 
L 0.921875 45.015625 
L 0.921875 51.859375 
L 8.6875 51.859375 
L 8.6875 57.375 
Q 8.6875 62.59375 9.625 65.140625 
Q 10.890625 68.5625 14.078125 70.671875 
Q 17.28125 72.796875 23.046875 72.796875 
Q 26.765625 72.796875 31.25 71.921875 
L 29.9375 64.265625 
Q 27.203125 64.75 24.75 64.75 
Q 20.75 64.75 19.09375 63.03125 
Q 17.4375 61.328125 17.4375 56.640625 
L 17.4375 51.859375 
L 27.546875 51.859375 
L 27.546875 45.015625 
L 17.4375 45.015625 
L 17.4375 0 
z
" id="ArialMT-102"/>
     <path d="M 4.984375 -4.296875 
L 13.53125 -5.5625 
Q 14.0625 -9.515625 16.5 -11.328125 
Q 19.78125 -13.765625 25.4375 -13.765625 
Q 31.546875 -13.765625 34.859375 -11.328125 
Q 38.1875 -8.890625 39.359375 -4.5 
Q 40.046875 -1.8125 39.984375 6.78125 
Q 34.234375 0 25.640625 0 
Q 14.9375 0 9.078125 7.71875 
Q 3.21875 15.4375 3.21875 26.21875 
Q 3.21875 33.640625 5.90625 39.90625 
Q 8.59375 46.1875 13.6875 49.609375 
Q 18.796875 53.03125 25.6875 53.03125 
Q 34.859375 53.03125 40.828125 45.609375 
L 40.828125 51.859375 
L 48.921875 51.859375 
L 48.921875 7.03125 
Q 48.921875 -5.078125 46.453125 -10.125 
Q 44 -15.1875 38.640625 -18.109375 
Q 33.296875 -21.046875 25.484375 -21.046875 
Q 16.21875 -21.046875 10.5 -16.875 
Q 4.78125 -12.703125 4.984375 -4.296875 
z
M 12.25 26.859375 
Q 12.25 16.65625 16.296875 11.96875 
Q 20.359375 7.28125 26.46875 7.28125 
Q 32.515625 7.28125 36.609375 11.9375 
Q 40.71875 16.609375 40.71875 26.5625 
Q 40.71875 36.078125 36.5 40.90625 
Q 32.28125 45.75 26.3125 45.75 
Q 20.453125 45.75 16.34375 40.984375 
Q 12.25 36.234375 12.25 26.859375 
z
" id="ArialMT-103"/>
     <path d="M 40.234375 0 
L 40.234375 6.546875 
Q 35.296875 -1.171875 25.734375 -1.171875 
Q 19.53125 -1.171875 14.328125 2.25 
Q 9.125 5.671875 6.265625 11.796875 
Q 3.421875 17.921875 3.421875 25.875 
Q 3.421875 33.640625 6 39.96875 
Q 8.59375 46.296875 13.765625 49.65625 
Q 18.953125 53.03125 25.34375 53.03125 
Q 30.03125 53.03125 33.6875 51.046875 
Q 37.359375 49.078125 39.65625 45.90625 
L 39.65625 71.578125 
L 48.390625 71.578125 
L 48.390625 0 
z
M 12.453125 25.875 
Q 12.453125 15.921875 16.640625 10.984375 
Q 20.84375 6.0625 26.5625 6.0625 
Q 32.328125 6.0625 36.34375 10.765625 
Q 40.375 15.484375 40.375 25.140625 
Q 40.375 35.796875 36.265625 40.765625 
Q 32.171875 45.75 26.171875 45.75 
Q 20.3125 45.75 16.375 40.96875 
Q 12.453125 36.1875 12.453125 25.875 
z
" id="ArialMT-100"/>
    </defs>
    <g style="fill:#262626;" transform="translate(248.3484 23.81625)scale(0.12 -0.12)">
     <use xlink:href="#ArialMT-83"/>
     <use x="66.699219" xlink:href="#ArialMT-99"/>
     <use x="116.699219" xlink:href="#ArialMT-97"/>
     <use x="172.314453" xlink:href="#ArialMT-116"/>
     <use x="200.097656" xlink:href="#ArialMT-116"/>
     <use x="227.880859" xlink:href="#ArialMT-101"/>
     <use x="283.496094" xlink:href="#ArialMT-114"/>
     <use x="316.796875" xlink:href="#ArialMT-112"/>
     <use x="372.412109" xlink:href="#ArialMT-108"/>
     <use x="394.628906" xlink:href="#ArialMT-111"/>
     <use x="450.244141" xlink:href="#ArialMT-116"/>
     <use x="478.027344" xlink:href="#ArialMT-32"/>
     <use x="505.810547" xlink:href="#ArialMT-102"/>
     <use x="533.59375" xlink:href="#ArialMT-111"/>
     <use x="589.208984" xlink:href="#ArialMT-114"/>
     <use x="622.509766" xlink:href="#ArialMT-32"/>
     <use x="650.292969" xlink:href="#ArialMT-108"/>
     <use x="672.509766" xlink:href="#ArialMT-111"/>
     <use x="728.125" xlink:href="#ArialMT-103"/>
     <use x="783.740234" xlink:href="#ArialMT-32"/>
     <use x="811.523438" xlink:href="#ArialMT-100"/>
     <use x="867.138672" xlink:href="#ArialMT-97"/>
     <use x="922.753906" xlink:href="#ArialMT-116"/>
     <use x="950.537109" xlink:href="#ArialMT-97"/>
    </g>
   </g>
  </g>
 </g>
 <defs>
  <clipPath id="p7bf27b4614">
   <rect height="314.590375" width="504.333825" x="56.546175" y="29.81625"/>
  </clipPath>
 </defs>
</svg>
